<svg width="65" height="69" viewBox="0 0 65 69" fill="none" xmlns="http://www.w3.org/2000/svg">
<path d="M65 2.55556C65 3.96695 63.6569 5.11111 62 5.11111C60.3431 5.11111 59 3.96695 59 2.55556C59 1.14416 60.3431 0 62 0C63.6569 0 65 1.14416 65 2.55556Z" fill="#D8D8D8"/>
<path d="M6 66.4445C6 67.8559 4.65685 69 3 69C1.34315 69 0 67.8559 0 66.4445C0 65.0331 1.34315 63.8889 3 63.8889C4.65685 63.8889 6 65.0331 6 66.4445Z" fill="#D8D8D8"/>
<path fill-rule="evenodd" clip-rule="evenodd" d="M2 15.3334C2 7.80593 9.16344 1.70374 18 1.70374H62V3.40744H18C10.268 3.40744 4 8.74686 4 15.3334V68.1482H2V15.3334Z" fill="#D8D8D8"/>
</svg>
