<svg width="1116" height="199" viewBox="0 0 1116 199" fill="none" xmlns="http://www.w3.org/2000/svg">
<g filter="url(#filter0_dd_13_473)">
<path class="hello" d="M30 118.722H155.5V166.833H30C22.5442 166.833 16.5 160.789 16.5 153.333V132.222C16.5 124.766 22.5442 118.722 30 118.722Z" fill="#EFEFEF" stroke="#EFEFEF" stroke-width="3"/>
<path d="M57.8906 133.693C57.8906 135.292 57.485 136.55 56.6738 137.466C55.8672 138.382 54.737 138.84 53.2832 138.84C51.8112 138.84 50.6719 138.391 49.8652 137.494C49.0632 136.591 48.6621 135.32 48.6621 133.679C48.6621 132.052 49.0609 130.792 49.8584 129.899C50.6605 129.001 51.8066 128.552 53.2969 128.552C54.7461 128.552 55.874 129.008 56.6807 129.919C57.4873 130.826 57.8906 132.084 57.8906 133.693ZM49.9883 133.693C49.9883 135.014 50.2686 136.022 50.8291 136.714C51.3896 137.407 52.2077 137.753 53.2832 137.753C54.3542 137.753 55.1676 137.412 55.7236 136.728C56.2796 136.044 56.5576 135.033 56.5576 133.693C56.5576 132.358 56.2819 131.353 55.7305 130.678C55.179 129.999 54.3678 129.66 53.2969 129.66C52.2122 129.66 51.3896 130.004 50.8291 130.692C50.2686 131.375 49.9883 132.376 49.9883 133.693ZM65.1162 132.237H62.6621V138.704H61.4453V132.237H59.0254V131.198H65.1162V132.237ZM69.5459 138.84C68.4658 138.84 67.625 138.51 67.0234 137.849C66.4219 137.184 66.1211 136.231 66.1211 134.992C66.1211 133.734 66.4242 132.765 67.0303 132.086C67.641 131.403 68.5091 131.061 69.6348 131.061C69.9993 131.061 70.3594 131.1 70.7148 131.177C71.0749 131.25 71.3711 131.346 71.6035 131.464L71.2275 132.49C70.5941 132.253 70.054 132.134 69.6074 132.134C68.8509 132.134 68.2926 132.374 67.9326 132.852C67.5726 133.326 67.3926 134.035 67.3926 134.978C67.3926 135.885 67.5726 136.58 67.9326 137.063C68.2926 137.542 68.8258 137.781 69.5322 137.781C70.193 137.781 70.8424 137.635 71.4805 137.343V138.437C70.9609 138.706 70.3161 138.84 69.5459 138.84ZM72.0889 131.198H73.4082L75.0283 135.47C75.3701 136.4 75.5798 137.081 75.6572 137.514H75.7119C75.7529 137.346 75.8464 137.031 75.9922 136.571C76.138 136.106 76.2611 135.735 76.3613 135.457L77.8857 131.198H79.2119L75.9785 139.743C75.6641 140.572 75.2904 141.167 74.8574 141.527C74.4245 141.887 73.889 142.067 73.251 142.067C72.9092 142.067 72.5697 142.028 72.2324 141.951V140.973C72.4603 141.028 72.7337 141.055 73.0527 141.055C73.4447 141.055 73.7773 140.946 74.0508 140.727C74.3242 140.513 74.5475 140.18 74.7207 139.729L75.1104 138.731L72.0889 131.198ZM85.583 132.237H83.1289V138.704H81.9121V132.237H79.4922V131.198H85.583V132.237ZM90.0127 138.84C88.9326 138.84 88.0918 138.51 87.4902 137.849C86.8887 137.184 86.5879 136.231 86.5879 134.992C86.5879 133.734 86.891 132.765 87.4971 132.086C88.1077 131.403 88.9759 131.061 90.1016 131.061C90.4661 131.061 90.8262 131.1 91.1816 131.177C91.5417 131.25 91.8379 131.346 92.0703 131.464L91.6943 132.49C91.0609 132.253 90.5208 132.134 90.0742 132.134C89.3177 132.134 88.7594 132.374 88.3994 132.852C88.0394 133.326 87.8594 134.035 87.8594 134.978C87.8594 135.885 88.0394 136.58 88.3994 137.063C88.7594 137.542 89.2926 137.781 89.999 137.781C90.6598 137.781 91.3092 137.635 91.9473 137.343V138.437C91.4277 138.706 90.7829 138.84 90.0127 138.84ZM98.9131 132.237H96.459V138.704H95.2422V132.237H92.8223V131.198H98.9131V132.237ZM106.576 133.091C106.576 133.574 106.439 133.944 106.166 134.199C105.893 134.449 105.503 134.62 104.997 134.711V134.773C105.631 134.86 106.091 135.049 106.378 135.34C106.67 135.627 106.815 136.015 106.815 136.502C106.815 137.213 106.553 137.758 106.029 138.136C105.51 138.514 104.76 138.704 103.78 138.704H100.403V131.198H103.767C105.64 131.198 106.576 131.829 106.576 133.091ZM105.585 136.434C105.585 136.015 105.421 135.721 105.093 135.552C104.765 135.384 104.284 135.299 103.65 135.299H101.634V137.712H103.678C104.949 137.712 105.585 137.286 105.585 136.434ZM105.373 133.201C105.373 132.85 105.236 132.599 104.963 132.449C104.694 132.298 104.286 132.223 103.739 132.223H101.634V134.281H103.514C104.184 134.281 104.66 134.199 104.942 134.035C105.229 133.866 105.373 133.588 105.373 133.201ZM109.632 131.198V135.778L109.577 137.104L109.55 137.487L113.569 131.198H115.08V138.704H113.932V134.281L113.952 133.331L113.986 132.428L109.994 138.704H108.47V131.198H109.632ZM120.672 138.84C119.546 138.84 118.662 138.501 118.02 137.822C117.382 137.138 117.062 136.199 117.062 135.005C117.062 133.802 117.361 132.845 117.958 132.134C118.555 131.419 119.362 131.061 120.378 131.061C121.321 131.061 122.073 131.366 122.634 131.977C123.194 132.583 123.475 133.406 123.475 134.445V135.19H118.334C118.357 136.042 118.573 136.689 118.983 137.131C119.394 137.573 119.975 137.794 120.727 137.794C121.128 137.794 121.508 137.76 121.868 137.692C122.228 137.619 122.65 137.48 123.133 137.275V138.355C122.718 138.533 122.328 138.658 121.964 138.731C121.599 138.804 121.169 138.84 120.672 138.84ZM120.364 132.066C119.776 132.066 119.312 132.255 118.97 132.633C118.628 133.012 118.425 133.538 118.361 134.212H122.183C122.174 133.511 122.012 132.977 121.697 132.613C121.383 132.248 120.938 132.066 120.364 132.066ZM51.8955 151.951C51.8955 153.067 51.5674 153.967 50.9111 154.651C50.2594 155.334 49.3503 155.722 48.1836 155.813V159.067H46.9805V155.813C45.832 155.717 44.9274 155.328 44.2666 154.644C43.6058 153.96 43.2754 153.063 43.2754 151.951C43.2754 150.811 43.6035 149.907 44.2598 149.237C44.916 148.562 45.8366 148.18 47.0215 148.088V145.067H48.1836V148.088C49.3366 148.202 50.2435 148.601 50.9043 149.285C51.5651 149.968 51.8955 150.857 51.8955 151.951ZM44.5605 151.951C44.5605 153.687 45.3809 154.639 47.0215 154.808V149.107C46.1647 149.194 45.5404 149.478 45.1484 149.961C44.7565 150.44 44.5605 151.103 44.5605 151.951ZM50.624 151.951C50.624 150.242 49.8105 149.298 48.1836 149.121V154.808C49.8105 154.63 50.624 153.678 50.624 151.951ZM55.0264 148.198V152.778L54.9717 154.104L54.9443 154.487L58.9639 148.198H60.4746V155.704H59.3262V151.281L59.3467 150.331L59.3809 149.428L55.3887 155.704H53.8643V148.198H55.0264ZM62.4844 151.199C62.4844 149.526 62.735 148.239 63.2363 147.336C63.7422 146.43 64.5352 145.858 65.6152 145.621C66.6315 145.416 67.7663 145.206 69.0195 144.992L69.2314 146.072L68.418 146.202C67.3607 146.375 66.5107 146.528 65.8682 146.66C65.2119 146.806 64.7174 147.14 64.3848 147.665C64.0566 148.184 63.8698 148.941 63.8242 149.934H63.9131C64.1774 149.565 64.5283 149.271 64.9658 149.052C65.4079 148.829 65.8773 148.717 66.374 148.717C67.2946 148.717 68.0146 149.014 68.5342 149.606C69.0537 150.198 69.3135 151.028 69.3135 152.094C69.3135 153.284 69.0104 154.207 68.4043 154.863C67.7982 155.514 66.9574 155.84 65.8818 155.84C64.8154 155.84 63.9814 155.432 63.3799 154.617C62.7829 153.801 62.4844 152.662 62.4844 151.199ZM65.9844 154.822C67.3379 154.822 68.0146 153.954 68.0146 152.217C68.0146 150.568 67.4017 149.743 66.1758 149.743C65.8431 149.743 65.5195 149.811 65.2051 149.948C64.8952 150.084 64.6126 150.264 64.3574 150.488C64.1068 150.711 63.9017 150.957 63.7422 151.226C63.7422 153.623 64.4896 154.822 65.9844 154.822ZM74.8232 155.84C73.8161 155.84 73.0413 155.478 72.499 154.753H72.417L72.4443 155.034C72.4808 155.389 72.499 155.706 72.499 155.984V159.067H71.2686V148.198H72.2803L72.4443 149.223H72.499C72.7907 148.813 73.1279 148.517 73.5107 148.334C73.8936 148.152 74.3356 148.061 74.8369 148.061C75.8122 148.061 76.5687 148.401 77.1064 149.08C77.6488 149.754 77.9199 150.707 77.9199 151.937C77.9199 153.163 77.6488 154.12 77.1064 154.808C76.5641 155.496 75.8031 155.84 74.8232 155.84ZM74.6182 149.093C73.8753 149.093 73.3376 149.303 73.0049 149.722C72.6768 150.141 72.5081 150.8 72.499 151.698V151.937C72.499 152.953 72.6676 153.689 73.0049 154.145C73.3421 154.596 73.889 154.822 74.6455 154.822C75.2744 154.822 75.7643 154.567 76.1152 154.056C76.4707 153.546 76.6484 152.835 76.6484 151.923C76.6484 151.007 76.4707 150.308 76.1152 149.825C75.7643 149.337 75.2653 149.093 74.6182 149.093ZM86.4033 151.937C86.4033 153.163 86.0934 154.12 85.4736 154.808C84.8538 155.496 83.9971 155.84 82.9033 155.84C82.2243 155.84 81.6227 155.683 81.0986 155.369C80.5745 155.05 80.1712 154.594 79.8887 154.001C79.6061 153.409 79.4648 152.721 79.4648 151.937C79.4648 150.716 79.7702 149.765 80.3809 149.086C80.9915 148.403 81.8483 148.061 82.9512 148.061C84.0085 148.061 84.847 148.41 85.4668 149.107C86.0911 149.8 86.4033 150.743 86.4033 151.937ZM80.7363 151.937C80.7363 152.88 80.9209 153.598 81.29 154.09C81.6637 154.578 82.2129 154.822 82.9375 154.822C83.653 154.822 84.1976 154.578 84.5713 154.09C84.945 153.598 85.1318 152.88 85.1318 151.937C85.1318 150.994 84.9427 150.285 84.5645 149.811C84.1908 149.333 83.6416 149.093 82.917 149.093C81.4632 149.093 80.7363 150.041 80.7363 151.937ZM89.8418 151.294C91.2591 151.294 91.9678 150.912 91.9678 150.146C91.9678 149.435 91.4004 149.08 90.2656 149.08C89.9056 149.08 89.5706 149.114 89.2607 149.182C88.9508 149.25 88.5794 149.376 88.1465 149.558L87.7158 148.581C88.4951 148.234 89.3678 148.061 90.334 148.061C91.2135 148.061 91.9017 148.236 92.3984 148.587C92.8952 148.938 93.1436 149.421 93.1436 150.037C93.1436 150.889 92.6742 151.443 91.7354 151.698V151.752C92.305 151.917 92.7243 152.153 92.9932 152.463C93.262 152.773 93.3965 153.163 93.3965 153.632C93.3965 154.32 93.1117 154.861 92.542 155.252C91.9723 155.644 91.1885 155.84 90.1904 155.84C89.0876 155.84 88.2354 155.679 87.6338 155.355V154.248C88.4678 154.639 89.3154 154.835 90.1768 154.835C90.8193 154.835 91.3138 154.728 91.6602 154.514C92.0065 154.3 92.1797 153.983 92.1797 153.564C92.1797 153.136 92.0042 152.819 91.6533 152.614C91.3024 152.404 90.7646 152.299 90.04 152.299H89.0283V151.294H89.8418ZM99.8564 155.704L99.6172 154.637H99.5625C99.1888 155.107 98.8151 155.426 98.4414 155.594C98.0723 155.758 97.6051 155.84 97.04 155.84C96.3018 155.84 95.723 155.647 95.3037 155.259C94.8844 154.872 94.6748 154.325 94.6748 153.619C94.6748 152.097 95.8757 151.299 98.2773 151.226L99.5488 151.178V150.734C99.5488 150.164 99.4258 149.745 99.1797 149.476C98.9336 149.203 98.5394 149.066 97.9971 149.066C97.6006 149.066 97.2246 149.125 96.8691 149.244C96.5182 149.362 96.1878 149.494 95.8779 149.64L95.502 148.717C95.8802 148.517 96.2926 148.36 96.7393 148.246C97.1859 148.132 97.6279 148.075 98.0654 148.075C98.9723 148.075 99.6468 148.275 100.089 148.676C100.531 149.077 100.752 149.715 100.752 150.59V155.704H99.8564ZM97.3203 154.849C98.0085 154.849 98.5485 154.665 98.9404 154.295C99.3369 153.922 99.5352 153.393 99.5352 152.709V152.033L98.4277 152.081C97.5664 152.112 96.9375 152.249 96.541 152.491C96.1491 152.732 95.9531 153.113 95.9531 153.632C95.9531 154.024 96.0716 154.325 96.3086 154.535C96.5501 154.744 96.8874 154.849 97.3203 154.849ZM108.849 145.75C107.757 147.794 107.211 149.805 107.211 151.784C107.211 153.762 107.757 155.774 108.849 157.818L107.925 158.308C106.609 156.17 105.951 153.996 105.951 151.784C105.951 149.572 106.609 147.397 107.925 145.26L108.849 145.75ZM112.026 155.704H110.738V146.38H115.988V147.43H112.026V150.622H115.82V151.672H112.026V155.704ZM123.242 147.542C123.82 148.428 124.11 149.595 124.11 151.042C124.11 152.488 123.82 153.655 123.242 154.542C122.663 155.428 121.814 155.872 120.694 155.872C119.574 155.872 118.724 155.428 118.146 154.542C117.567 153.655 117.278 152.488 117.278 151.042C117.278 149.595 117.567 148.428 118.146 147.542C118.724 146.655 119.574 146.212 120.694 146.212C121.814 146.212 122.663 146.655 123.242 147.542ZM118.552 151.042C118.552 153.571 119.266 154.836 120.694 154.836C122.122 154.836 122.836 153.571 122.836 151.042C122.836 148.512 122.122 147.248 120.694 147.248C119.266 147.248 118.552 148.512 118.552 151.042ZM125.537 157.818C126.629 155.774 127.175 153.762 127.175 151.784C127.175 149.805 126.629 147.794 125.537 145.75L126.461 145.26C127.777 147.397 128.435 149.572 128.435 151.784C128.435 153.996 127.777 156.17 126.461 158.308L125.537 157.818Z" fill="#002E6D"/>
<rect x="159" y="117.222" width="142" height="51.1111" fill="#EFEFEF"/>
<path d="M209.089 129.673C208.013 129.673 207.168 130.033 206.553 130.753C205.938 131.473 205.63 132.458 205.63 133.707C205.63 134.996 205.928 135.992 206.525 136.694C207.122 137.391 207.972 137.74 209.075 137.74C209.786 137.74 210.586 137.608 211.475 137.343V138.437C211.051 138.592 210.643 138.697 210.251 138.751C209.859 138.811 209.408 138.84 208.897 138.84C207.425 138.84 206.291 138.394 205.493 137.5C204.7 136.603 204.304 135.333 204.304 133.693C204.304 132.663 204.493 131.761 204.871 130.986C205.254 130.211 205.808 129.614 206.532 129.195C207.261 128.776 208.118 128.566 209.103 128.566C210.16 128.566 211.08 128.762 211.864 129.154L211.358 130.22C210.561 129.856 209.804 129.673 209.089 129.673ZM219.199 138.704H217.948V132.223H215.74C215.613 133.864 215.439 135.153 215.221 136.092C215.007 137.027 214.724 137.712 214.373 138.15C214.027 138.583 213.582 138.799 213.04 138.799C212.744 138.799 212.527 138.767 212.391 138.704V137.781C212.486 137.817 212.614 137.835 212.773 137.835C213.275 137.835 213.674 137.307 213.97 136.25C214.271 135.192 214.505 133.508 214.674 131.198H219.199V138.704ZM226.213 138.704L225.974 137.637H225.919C225.545 138.107 225.172 138.426 224.798 138.594C224.429 138.758 223.962 138.84 223.396 138.84C222.658 138.84 222.079 138.647 221.66 138.259C221.241 137.872 221.031 137.325 221.031 136.619C221.031 135.097 222.232 134.299 224.634 134.226L225.905 134.178V133.734C225.905 133.164 225.782 132.745 225.536 132.476C225.29 132.203 224.896 132.066 224.354 132.066C223.957 132.066 223.581 132.125 223.226 132.244C222.875 132.362 222.544 132.494 222.234 132.64L221.858 131.717C222.237 131.517 222.649 131.36 223.096 131.246C223.542 131.132 223.984 131.075 224.422 131.075C225.329 131.075 226.003 131.275 226.445 131.676C226.887 132.077 227.108 132.715 227.108 133.59V138.704H226.213ZM223.677 137.849C224.365 137.849 224.905 137.665 225.297 137.295C225.693 136.922 225.892 136.393 225.892 135.709V135.033L224.784 135.081C223.923 135.112 223.294 135.249 222.897 135.491C222.506 135.732 222.31 136.113 222.31 136.632C222.31 137.024 222.428 137.325 222.665 137.535C222.907 137.744 223.244 137.849 223.677 137.849ZM229.05 134.199C229.05 132.526 229.3 131.239 229.802 130.336C230.308 129.43 231.101 128.858 232.181 128.621C233.197 128.416 234.332 128.206 235.585 127.992L235.797 129.072L234.983 129.202C233.926 129.375 233.076 129.528 232.434 129.66C231.777 129.806 231.283 130.14 230.95 130.665C230.622 131.184 230.435 131.941 230.39 132.934H230.479C230.743 132.565 231.094 132.271 231.531 132.052C231.973 131.829 232.443 131.717 232.939 131.717C233.86 131.717 234.58 132.014 235.1 132.606C235.619 133.198 235.879 134.028 235.879 135.094C235.879 136.284 235.576 137.207 234.97 137.863C234.364 138.514 233.523 138.84 232.447 138.84C231.381 138.84 230.547 138.432 229.945 137.617C229.348 136.801 229.05 135.662 229.05 134.199ZM232.55 137.822C233.903 137.822 234.58 136.954 234.58 135.217C234.58 133.568 233.967 132.743 232.741 132.743C232.409 132.743 232.085 132.811 231.771 132.948C231.461 133.084 231.178 133.264 230.923 133.488C230.672 133.711 230.467 133.957 230.308 134.226C230.308 136.623 231.055 137.822 232.55 137.822ZM239.064 134.281H241.013C241.988 134.281 242.708 134.458 243.173 134.814C243.638 135.169 243.87 135.7 243.87 136.407C243.87 137.168 243.624 137.742 243.132 138.129C242.64 138.512 241.915 138.704 240.958 138.704H237.834V131.198H239.064V134.281ZM242.653 136.475C242.653 136.069 242.517 135.773 242.243 135.586C241.974 135.395 241.512 135.299 240.855 135.299H239.064V137.712H240.842C242.049 137.712 242.653 137.3 242.653 136.475ZM246.345 138.704H245.114V131.198H246.345V138.704ZM249.893 131.198V135.778L249.838 137.104L249.811 137.487L253.83 131.198H255.341V138.704H254.192V134.281L254.213 133.331L254.247 132.428L250.255 138.704H248.73V131.198H249.893ZM252.012 130.22C251.137 130.22 250.499 130.054 250.098 129.721C249.701 129.389 249.48 128.846 249.435 128.094H250.583C250.624 128.568 250.747 128.899 250.952 129.085C251.162 129.272 251.524 129.366 252.039 129.366C252.508 129.366 252.855 129.265 253.078 129.065C253.306 128.864 253.445 128.541 253.495 128.094H254.657C254.589 128.833 254.34 129.373 253.912 129.714C253.484 130.052 252.85 130.22 252.012 130.22ZM201.48 151.951C201.48 153.067 201.152 153.967 200.496 154.651C199.844 155.334 198.935 155.722 197.769 155.813V159.067H196.565V155.813C195.417 155.717 194.512 155.328 193.852 154.644C193.191 153.96 192.86 153.063 192.86 151.951C192.86 150.811 193.188 149.907 193.845 149.237C194.501 148.562 195.422 148.18 196.606 148.088V145.067H197.769V148.088C198.922 148.202 199.828 148.601 200.489 149.285C201.15 149.968 201.48 150.857 201.48 151.951ZM194.146 151.951C194.146 153.687 194.966 154.639 196.606 154.808V149.107C195.75 149.194 195.125 149.478 194.733 149.961C194.341 150.44 194.146 151.103 194.146 151.951ZM200.209 151.951C200.209 150.242 199.396 149.298 197.769 149.121V154.808C199.396 154.63 200.209 153.678 200.209 151.951ZM204.611 148.198V152.778L204.557 154.104L204.529 154.487L208.549 148.198H210.06V155.704H208.911V151.281L208.932 150.331L208.966 149.428L204.974 155.704H203.449V148.198H204.611ZM212.069 151.199C212.069 149.526 212.32 148.239 212.821 147.336C213.327 146.43 214.12 145.858 215.2 145.621C216.216 145.416 217.351 145.206 218.604 144.992L218.816 146.072L218.003 146.202C216.946 146.375 216.096 146.528 215.453 146.66C214.797 146.806 214.302 147.14 213.97 147.665C213.642 148.184 213.455 148.941 213.409 149.934H213.498C213.762 149.565 214.113 149.271 214.551 149.052C214.993 148.829 215.462 148.717 215.959 148.717C216.88 148.717 217.6 149.014 218.119 149.606C218.639 150.198 218.898 151.028 218.898 152.094C218.898 153.284 218.595 154.207 217.989 154.863C217.383 155.514 216.542 155.84 215.467 155.84C214.4 155.84 213.566 155.432 212.965 154.617C212.368 153.801 212.069 152.662 212.069 151.199ZM215.569 154.822C216.923 154.822 217.6 153.954 217.6 152.217C217.6 150.568 216.987 149.743 215.761 149.743C215.428 149.743 215.104 149.811 214.79 149.948C214.48 150.084 214.198 150.264 213.942 150.488C213.692 150.711 213.487 150.957 213.327 151.226C213.327 153.623 214.075 154.822 215.569 154.822ZM224.408 155.84C223.401 155.84 222.626 155.478 222.084 154.753H222.002L222.029 155.034C222.066 155.389 222.084 155.706 222.084 155.984V159.067H220.854V148.198H221.865L222.029 149.223H222.084C222.376 148.813 222.713 148.517 223.096 148.334C223.479 148.152 223.921 148.061 224.422 148.061C225.397 148.061 226.154 148.401 226.691 149.08C227.234 149.754 227.505 150.707 227.505 151.937C227.505 153.163 227.234 154.12 226.691 154.808C226.149 155.496 225.388 155.84 224.408 155.84ZM224.203 149.093C223.46 149.093 222.923 149.303 222.59 149.722C222.262 150.141 222.093 150.8 222.084 151.698V151.937C222.084 152.953 222.253 153.689 222.59 154.145C222.927 154.596 223.474 154.822 224.23 154.822C224.859 154.822 225.349 154.567 225.7 154.056C226.056 153.546 226.233 152.835 226.233 151.923C226.233 151.007 226.056 150.308 225.7 149.825C225.349 149.337 224.85 149.093 224.203 149.093ZM235.988 151.937C235.988 153.163 235.678 154.12 235.059 154.808C234.439 155.496 233.582 155.84 232.488 155.84C231.809 155.84 231.208 155.683 230.684 155.369C230.16 155.05 229.756 154.594 229.474 154.001C229.191 153.409 229.05 152.721 229.05 151.937C229.05 150.716 229.355 149.765 229.966 149.086C230.576 148.403 231.433 148.061 232.536 148.061C233.593 148.061 234.432 148.41 235.052 149.107C235.676 149.8 235.988 150.743 235.988 151.937ZM230.321 151.937C230.321 152.88 230.506 153.598 230.875 154.09C231.249 154.578 231.798 154.822 232.522 154.822C233.238 154.822 233.783 154.578 234.156 154.09C234.53 153.598 234.717 152.88 234.717 151.937C234.717 150.994 234.528 150.285 234.149 149.811C233.776 149.333 233.227 149.093 232.502 149.093C231.048 149.093 230.321 150.041 230.321 151.937ZM239.427 151.294C240.844 151.294 241.553 150.912 241.553 150.146C241.553 149.435 240.985 149.08 239.851 149.08C239.491 149.08 239.156 149.114 238.846 149.182C238.536 149.25 238.164 149.376 237.731 149.558L237.301 148.581C238.08 148.234 238.953 148.061 239.919 148.061C240.799 148.061 241.487 148.236 241.983 148.587C242.48 148.938 242.729 149.421 242.729 150.037C242.729 150.889 242.259 151.443 241.32 151.698V151.752C241.89 151.917 242.309 152.153 242.578 152.463C242.847 152.773 242.981 153.163 242.981 153.632C242.981 154.32 242.697 154.861 242.127 155.252C241.557 155.644 240.773 155.84 239.775 155.84C238.673 155.84 237.82 155.679 237.219 155.355V154.248C238.053 154.639 238.9 154.835 239.762 154.835C240.404 154.835 240.899 154.728 241.245 154.514C241.591 154.3 241.765 153.983 241.765 153.564C241.765 153.136 241.589 152.819 241.238 152.614C240.887 152.404 240.35 152.299 239.625 152.299H238.613V151.294H239.427ZM250.573 145.75C249.481 147.794 248.935 149.805 248.935 151.784C248.935 153.762 249.481 155.774 250.573 157.818L249.649 158.308C248.333 156.17 247.675 153.996 247.675 151.784C247.675 149.572 248.333 147.397 249.649 145.26L250.573 145.75ZM253.75 155.704H252.462V146.38H257.712V147.43H253.75V150.622H257.544V151.672H253.75V155.704ZM261.997 155.704H260.723V147.724L258.917 148.466L258.553 147.472L261.171 146.38H261.997V155.704ZM263.952 157.818C265.044 155.774 265.59 153.762 265.59 151.784C265.59 149.805 265.044 147.794 263.952 145.75L264.876 145.26C266.192 147.397 266.85 149.572 266.85 151.784C266.85 153.996 266.192 156.17 264.876 158.308L263.952 157.818Z" fill="#002E6D"/>
<rect x="303" y="117.222" width="142" height="51.1111" fill="#EFEFEF"/>
<path d="M335.322 138.84C334.807 138.84 334.354 138.772 333.962 138.635V137.446C334.377 137.633 334.816 137.726 335.281 137.726C335.769 137.726 336.161 137.612 336.457 137.384C336.758 137.156 337.047 136.742 337.325 136.14L333.477 128.709H334.857L337.715 134.267C337.829 134.481 337.927 134.718 338.009 134.978H338.063L338.118 134.814L338.33 134.253L340.723 128.709H342.056L338.863 135.86C338.485 136.708 338.141 137.325 337.831 137.712C337.521 138.1 337.166 138.385 336.765 138.567C336.368 138.749 335.887 138.84 335.322 138.84ZM347.237 137.528C347.374 137.031 347.547 136.518 347.757 135.99L349.712 131.198H351.298V138.704H350.19V132.517C350.031 133.014 349.844 133.536 349.63 134.083L347.757 138.704H346.759L344.886 134.055C344.795 133.836 344.703 133.597 344.612 133.337C344.526 133.078 344.439 132.804 344.353 132.517V138.704H343.245V131.198H344.783L346.677 135.805C346.845 136.234 347.032 136.808 347.237 137.528ZM356.883 138.84C355.757 138.84 354.873 138.501 354.23 137.822C353.592 137.138 353.273 136.199 353.273 135.005C353.273 133.802 353.572 132.845 354.169 132.134C354.766 131.419 355.573 131.061 356.589 131.061C357.532 131.061 358.284 131.366 358.845 131.977C359.405 132.583 359.686 133.406 359.686 134.445V135.19H354.545C354.568 136.042 354.784 136.689 355.194 137.131C355.604 137.573 356.186 137.794 356.938 137.794C357.339 137.794 357.719 137.76 358.079 137.692C358.439 137.619 358.861 137.48 359.344 137.275V138.355C358.929 138.533 358.539 138.658 358.175 138.731C357.81 138.804 357.38 138.84 356.883 138.84ZM356.575 132.066C355.987 132.066 355.522 132.255 355.181 132.633C354.839 133.012 354.636 133.538 354.572 134.212H358.394C358.384 133.511 358.223 132.977 357.908 132.613C357.594 132.248 357.149 132.066 356.575 132.066ZM365.147 138.84C364.14 138.84 363.366 138.478 362.823 137.753H362.741L362.769 138.034C362.805 138.389 362.823 138.706 362.823 138.984V142.067H361.593V131.198H362.604L362.769 132.223H362.823C363.115 131.813 363.452 131.517 363.835 131.334C364.218 131.152 364.66 131.061 365.161 131.061C366.136 131.061 366.893 131.401 367.431 132.08C367.973 132.754 368.244 133.707 368.244 134.937C368.244 136.163 367.973 137.12 367.431 137.808C366.888 138.496 366.127 138.84 365.147 138.84ZM364.942 132.093C364.2 132.093 363.662 132.303 363.329 132.722C363.001 133.141 362.832 133.8 362.823 134.698V134.937C362.823 135.953 362.992 136.689 363.329 137.145C363.666 137.596 364.213 137.822 364.97 137.822C365.599 137.822 366.089 137.567 366.439 137.056C366.795 136.546 366.973 135.835 366.973 134.923C366.973 134.007 366.795 133.308 366.439 132.825C366.089 132.337 365.59 132.093 364.942 132.093ZM373.398 138.84C372.273 138.84 371.389 138.501 370.746 137.822C370.108 137.138 369.789 136.199 369.789 135.005C369.789 133.802 370.088 132.845 370.685 132.134C371.282 131.419 372.088 131.061 373.104 131.061C374.048 131.061 374.8 131.366 375.36 131.977C375.921 132.583 376.201 133.406 376.201 134.445V135.19H371.061C371.083 136.042 371.3 136.689 371.71 137.131C372.12 137.573 372.701 137.794 373.453 137.794C373.854 137.794 374.235 137.76 374.595 137.692C374.955 137.619 375.376 137.48 375.859 137.275V138.355C375.445 138.533 375.055 138.658 374.69 138.731C374.326 138.804 373.895 138.84 373.398 138.84ZM373.091 132.066C372.503 132.066 372.038 132.255 371.696 132.633C371.354 133.012 371.152 133.538 371.088 134.212H374.909C374.9 133.511 374.738 132.977 374.424 132.613C374.109 132.248 373.665 132.066 373.091 132.066ZM379.339 131.198V134.322H383.413V131.198H384.644V138.704H383.413V135.361H379.339V138.704H378.108V131.198H379.339ZM388.267 131.198V134.322H392.341V131.198H393.571V138.704H392.341V135.361H388.267V138.704H387.036V131.198H388.267ZM397.194 134.281H399.143C400.118 134.281 400.838 134.458 401.303 134.814C401.768 135.169 402 135.7 402 136.407C402 137.168 401.754 137.742 401.262 138.129C400.77 138.512 400.045 138.704 399.088 138.704H395.964V131.198H397.194V134.281ZM400.783 136.475C400.783 136.069 400.646 135.773 400.373 135.586C400.104 135.395 399.642 135.299 398.985 135.299H397.194V137.712H398.972C400.179 137.712 400.783 137.3 400.783 136.475ZM404.475 138.704H403.244V131.198H404.475V138.704ZM408.022 131.198V135.778L407.968 137.104L407.94 137.487L411.96 131.198H413.471V138.704H412.322V134.281L412.343 133.331L412.377 132.428L408.385 138.704H406.86V131.198H408.022ZM410.142 130.22C409.267 130.22 408.629 130.054 408.228 129.721C407.831 129.389 407.61 128.846 407.564 128.094H408.713C408.754 128.568 408.877 128.899 409.082 129.085C409.292 129.272 409.654 129.366 410.169 129.366C410.638 129.366 410.985 129.265 411.208 129.065C411.436 128.864 411.575 128.541 411.625 128.094H412.787C412.719 128.833 412.47 129.373 412.042 129.714C411.614 130.052 410.98 130.22 410.142 130.22ZM344.612 151.951C344.612 153.067 344.284 153.967 343.628 154.651C342.976 155.334 342.067 155.722 340.9 155.813V159.067H339.697V155.813C338.549 155.717 337.644 155.328 336.983 154.644C336.323 153.96 335.992 153.063 335.992 151.951C335.992 150.811 336.32 149.907 336.977 149.237C337.633 148.562 338.553 148.18 339.738 148.088V145.067H340.9V148.088C342.053 148.202 342.96 148.601 343.621 149.285C344.282 149.968 344.612 150.857 344.612 151.951ZM337.277 151.951C337.277 153.687 338.098 154.639 339.738 154.808V149.107C338.882 149.194 338.257 149.478 337.865 149.961C337.473 150.44 337.277 151.103 337.277 151.951ZM343.341 151.951C343.341 150.242 342.527 149.298 340.9 149.121V154.808C342.527 154.63 343.341 153.678 343.341 151.951ZM347.743 148.198V152.778L347.688 154.104L347.661 154.487L351.681 148.198H353.191V155.704H352.043V151.281L352.063 150.331L352.098 149.428L348.105 155.704H346.581V148.198H347.743ZM355.201 151.199C355.201 149.526 355.452 148.239 355.953 147.336C356.459 146.43 357.252 145.858 358.332 145.621C359.348 145.416 360.483 145.206 361.736 144.992L361.948 146.072L361.135 146.202C360.077 146.375 359.228 146.528 358.585 146.66C357.929 146.806 357.434 147.14 357.102 147.665C356.773 148.184 356.587 148.941 356.541 149.934H356.63C356.894 149.565 357.245 149.271 357.683 149.052C358.125 148.829 358.594 148.717 359.091 148.717C360.011 148.717 360.731 149.014 361.251 149.606C361.771 150.198 362.03 151.028 362.03 152.094C362.03 153.284 361.727 154.207 361.121 154.863C360.515 155.514 359.674 155.84 358.599 155.84C357.532 155.84 356.698 155.432 356.097 154.617C355.5 153.801 355.201 152.662 355.201 151.199ZM358.701 154.822C360.055 154.822 360.731 153.954 360.731 152.217C360.731 150.568 360.118 149.743 358.893 149.743C358.56 149.743 358.236 149.811 357.922 149.948C357.612 150.084 357.329 150.264 357.074 150.488C356.824 150.711 356.618 150.957 356.459 151.226C356.459 153.623 357.206 154.822 358.701 154.822ZM367.54 155.84C366.533 155.84 365.758 155.478 365.216 154.753H365.134L365.161 155.034C365.198 155.389 365.216 155.706 365.216 155.984V159.067H363.985V148.198H364.997L365.161 149.223H365.216C365.507 148.813 365.845 148.517 366.228 148.334C366.61 148.152 367.052 148.061 367.554 148.061C368.529 148.061 369.285 148.401 369.823 149.08C370.366 149.754 370.637 150.707 370.637 151.937C370.637 153.163 370.366 154.12 369.823 154.808C369.281 155.496 368.52 155.84 367.54 155.84ZM367.335 149.093C366.592 149.093 366.054 149.303 365.722 149.722C365.394 150.141 365.225 150.8 365.216 151.698V151.937C365.216 152.953 365.384 153.689 365.722 154.145C366.059 154.596 366.606 154.822 367.362 154.822C367.991 154.822 368.481 154.567 368.832 154.056C369.188 153.546 369.365 152.835 369.365 151.923C369.365 151.007 369.188 150.308 368.832 149.825C368.481 149.337 367.982 149.093 367.335 149.093ZM379.12 151.937C379.12 153.163 378.81 154.12 378.19 154.808C377.571 155.496 376.714 155.84 375.62 155.84C374.941 155.84 374.34 155.683 373.815 155.369C373.291 155.05 372.888 154.594 372.605 154.001C372.323 153.409 372.182 152.721 372.182 151.937C372.182 150.716 372.487 149.765 373.098 149.086C373.708 148.403 374.565 148.061 375.668 148.061C376.725 148.061 377.564 148.41 378.184 149.107C378.808 149.8 379.12 150.743 379.12 151.937ZM373.453 151.937C373.453 152.88 373.638 153.598 374.007 154.09C374.381 154.578 374.93 154.822 375.654 154.822C376.37 154.822 376.914 154.578 377.288 154.09C377.662 153.598 377.849 152.88 377.849 151.937C377.849 150.994 377.66 150.285 377.281 149.811C376.908 149.333 376.358 149.093 375.634 149.093C374.18 149.093 373.453 150.041 373.453 151.937ZM382.559 151.294C383.976 151.294 384.685 150.912 384.685 150.146C384.685 149.435 384.117 149.08 382.982 149.08C382.622 149.08 382.287 149.114 381.978 149.182C381.668 149.25 381.296 149.376 380.863 149.558L380.433 148.581C381.212 148.234 382.085 148.061 383.051 148.061C383.93 148.061 384.618 148.236 385.115 148.587C385.612 148.938 385.86 149.421 385.86 150.037C385.86 150.889 385.391 151.443 384.452 151.698V151.752C385.022 151.917 385.441 152.153 385.71 152.463C385.979 152.773 386.113 153.163 386.113 153.632C386.113 154.32 385.828 154.861 385.259 155.252C384.689 155.644 383.905 155.84 382.907 155.84C381.804 155.84 380.952 155.679 380.351 155.355V154.248C381.185 154.639 382.032 154.835 382.894 154.835C383.536 154.835 384.031 154.728 384.377 154.514C384.723 154.3 384.896 153.983 384.896 153.564C384.896 153.136 384.721 152.819 384.37 152.614C384.019 152.404 383.481 152.299 382.757 152.299H381.745V151.294H382.559ZM393.705 145.75C392.613 147.794 392.067 149.805 392.067 151.784C392.067 153.762 392.613 155.774 393.705 157.818L392.781 158.308C391.465 156.17 390.807 153.996 390.807 151.784C390.807 149.572 391.465 147.397 392.781 145.26L393.705 145.75ZM396.882 155.704H395.594V146.38H400.844V147.43H396.882V150.622H400.676V151.672H396.882V155.704ZM402.567 147.724L402.273 146.758C402.861 146.394 403.575 146.212 404.415 146.212C405.274 146.212 405.965 146.464 406.487 146.968C407.019 147.472 407.285 148.144 407.285 148.984C407.285 149.712 407.113 150.365 406.767 150.944C406.431 151.522 405.904 152.185 405.185 152.932C404.523 153.604 403.916 154.182 403.365 154.668H407.425V155.704H401.923L401.769 154.934C402.787 153.926 403.678 152.992 404.443 152.134C404.966 151.555 405.358 151.028 405.619 150.552C405.881 150.076 406.011 149.572 406.011 149.04C406.011 148.489 405.857 148.055 405.549 147.738C405.241 147.42 404.821 147.262 404.289 147.262C403.711 147.262 403.137 147.416 402.567 147.724ZM408.82 157.818C409.912 155.774 410.458 153.762 410.458 151.784C410.458 149.805 409.912 147.794 408.82 145.75L409.744 145.26C411.06 147.397 411.718 149.572 411.718 151.784C411.718 153.996 411.06 156.17 409.744 158.308L408.82 157.818Z" fill="#002E6D"/>
<rect x="447" y="117.222" width="142" height="51.1111" fill="#EFEFEF"/>
<path d="M483.595 136.566H484.839V137.796H485.304C486.097 137.796 486.78 137.956 487.354 138.275C487.933 138.589 488.373 139.029 488.674 139.594C488.975 140.159 489.125 140.802 489.125 141.522C489.125 142.274 488.956 142.944 488.619 143.532C488.282 144.12 487.815 144.562 487.218 144.858C486.621 145.154 485.917 145.302 485.105 145.302H484.839V146.84H483.595V145.302H483.301C482.49 145.302 481.788 145.152 481.195 144.851C480.603 144.546 480.14 144.099 479.808 143.511C479.475 142.923 479.309 142.26 479.309 141.522C479.309 140.816 479.464 140.18 479.773 139.615C480.083 139.045 480.528 138.601 481.106 138.282C481.685 137.958 482.367 137.796 483.15 137.796H483.595V136.566ZM484.839 144.27H485.01C485.908 144.27 486.605 144.026 487.102 143.539C487.603 143.046 487.854 142.37 487.854 141.508C487.854 140.688 487.621 140.043 487.156 139.574C486.696 139.1 486.051 138.863 485.222 138.863H484.839V144.27ZM483.595 138.863H483.219C482.394 138.863 481.749 139.102 481.284 139.581C480.819 140.055 480.587 140.697 480.587 141.508C480.587 142.37 480.835 143.046 481.332 143.539C481.829 144.026 482.533 144.27 483.444 144.27H483.595V138.863ZM492.215 139.198V143.778L492.16 145.104L492.133 145.487L496.152 139.198H497.663V146.704H496.515V142.281L496.535 141.331L496.569 140.428L492.577 146.704H491.053V139.198H492.215ZM499.673 142.199C499.673 140.526 499.924 139.239 500.425 138.336C500.931 137.43 501.724 136.858 502.804 136.621C503.82 136.416 504.955 136.206 506.208 135.992L506.42 137.072L505.606 137.202C504.549 137.375 503.699 137.528 503.057 137.66C502.4 137.806 501.906 138.14 501.573 138.665C501.245 139.184 501.058 139.941 501.013 140.934H501.102C501.366 140.565 501.717 140.271 502.154 140.052C502.596 139.829 503.066 139.717 503.562 139.717C504.483 139.717 505.203 140.014 505.723 140.606C506.242 141.198 506.502 142.028 506.502 143.094C506.502 144.284 506.199 145.207 505.593 145.863C504.987 146.514 504.146 146.84 503.07 146.84C502.004 146.84 501.17 146.432 500.568 145.617C499.971 144.801 499.673 143.662 499.673 142.199ZM503.173 145.822C504.526 145.822 505.203 144.954 505.203 143.217C505.203 141.568 504.59 140.743 503.364 140.743C503.032 140.743 502.708 140.811 502.394 140.948C502.084 141.084 501.801 141.264 501.546 141.488C501.295 141.711 501.09 141.957 500.931 142.226C500.931 144.623 501.678 145.822 503.173 145.822ZM512.012 146.84C511.005 146.84 510.23 146.478 509.688 145.753H509.605L509.633 146.034C509.669 146.389 509.688 146.706 509.688 146.984V150.067H508.457V139.198H509.469L509.633 140.223H509.688C509.979 139.813 510.316 139.517 510.699 139.334C511.082 139.152 511.524 139.061 512.025 139.061C513.001 139.061 513.757 139.401 514.295 140.08C514.837 140.754 515.108 141.707 515.108 142.937C515.108 144.163 514.837 145.12 514.295 145.808C513.753 146.496 512.992 146.84 512.012 146.84ZM511.807 140.093C511.064 140.093 510.526 140.303 510.193 140.722C509.865 141.141 509.697 141.8 509.688 142.698V142.937C509.688 143.953 509.856 144.689 510.193 145.145C510.531 145.596 511.077 145.822 511.834 145.822C512.463 145.822 512.953 145.567 513.304 145.056C513.659 144.546 513.837 143.835 513.837 142.923C513.837 142.007 513.659 141.308 513.304 140.825C512.953 140.337 512.454 140.093 511.807 140.093ZM523.592 142.937C523.592 144.163 523.282 145.12 522.662 145.808C522.042 146.496 521.186 146.84 520.092 146.84C519.413 146.84 518.811 146.683 518.287 146.369C517.763 146.05 517.36 145.594 517.077 145.001C516.795 144.409 516.653 143.721 516.653 142.937C516.653 141.716 516.959 140.765 517.569 140.086C518.18 139.403 519.037 139.061 520.14 139.061C521.197 139.061 522.035 139.41 522.655 140.107C523.28 140.8 523.592 141.743 523.592 142.937ZM517.925 142.937C517.925 143.88 518.109 144.598 518.479 145.09C518.852 145.578 519.401 145.822 520.126 145.822C520.841 145.822 521.386 145.578 521.76 145.09C522.133 144.598 522.32 143.88 522.32 142.937C522.32 141.994 522.131 141.285 521.753 140.811C521.379 140.333 520.83 140.093 520.105 140.093C518.652 140.093 517.925 141.041 517.925 142.937ZM527.03 142.294C528.448 142.294 529.156 141.912 529.156 141.146C529.156 140.435 528.589 140.08 527.454 140.08C527.094 140.08 526.759 140.114 526.449 140.182C526.139 140.25 525.768 140.376 525.335 140.558L524.904 139.581C525.684 139.234 526.556 139.061 527.522 139.061C528.402 139.061 529.09 139.236 529.587 139.587C530.084 139.938 530.332 140.421 530.332 141.037C530.332 141.889 529.863 142.443 528.924 142.698V142.752C529.493 142.917 529.913 143.153 530.182 143.463C530.451 143.773 530.585 144.163 530.585 144.632C530.585 145.32 530.3 145.861 529.73 146.252C529.161 146.644 528.377 146.84 527.379 146.84C526.276 146.84 525.424 146.679 524.822 146.355V145.248C525.656 145.639 526.504 145.835 527.365 145.835C528.008 145.835 528.502 145.728 528.849 145.514C529.195 145.3 529.368 144.983 529.368 144.564C529.368 144.136 529.193 143.819 528.842 143.614C528.491 143.404 527.953 143.299 527.229 143.299H526.217V142.294H527.03ZM538.177 136.75C537.085 138.794 536.539 140.805 536.539 142.784C536.539 144.762 537.085 146.774 538.177 148.818L537.253 149.308C535.937 147.17 535.279 144.996 535.279 142.784C535.279 140.572 535.937 138.397 537.253 136.26L538.177 136.75ZM541.353 146.704H540.065V137.38H545.315V138.43H541.353V141.622H545.147V142.672H541.353V146.704ZM551.869 144.24C551.869 145.033 551.58 145.672 551.001 146.158C550.422 146.634 549.68 146.872 548.775 146.872C547.972 146.872 547.221 146.718 546.521 146.41L546.773 145.388C547.426 145.686 548.066 145.836 548.691 145.836C549.298 145.836 549.764 145.696 550.091 145.416C550.427 145.126 550.595 144.753 550.595 144.296C550.595 143.67 550.348 143.208 549.853 142.91C549.368 142.602 548.752 142.448 548.005 142.448H547.459V141.412H547.963C548.654 141.412 549.232 141.248 549.699 140.922C550.175 140.586 550.413 140.147 550.413 139.606C550.413 139.167 550.273 138.831 549.993 138.598C549.713 138.364 549.33 138.248 548.845 138.248C548.276 138.248 547.692 138.383 547.095 138.654L546.843 137.688C547.431 137.37 548.15 137.212 548.999 137.212C549.783 137.212 550.427 137.417 550.931 137.828C551.435 138.238 551.687 138.775 551.687 139.438C551.687 140.539 551.057 141.346 549.797 141.86C550.404 142.018 550.898 142.308 551.281 142.728C551.673 143.148 551.869 143.652 551.869 144.24ZM553.456 148.818C554.548 146.774 555.094 144.762 555.094 142.784C555.094 140.805 554.548 138.794 553.456 136.75L554.38 136.26C555.696 138.397 556.354 140.572 556.354 142.784C556.354 144.996 555.696 147.17 554.38 149.308L553.456 148.818Z" fill="#002E6D"/>
<rect x="591" y="117.222" width="142" height="51.1111" fill="#EFEFEF"/>
<path d="M631.443 145.596H632.667V149.335H631.457V146.704H623.944V136.709H625.202V145.583H630.199V136.709H631.443V145.596ZM635.312 139.198V143.778L635.258 145.104L635.23 145.487L639.25 139.198H640.761V146.704H639.612V142.281L639.633 141.331L639.667 140.428L635.675 146.704H634.15V139.198H635.312ZM646.715 146.84C645.708 146.84 644.933 146.478 644.391 145.753H644.309L644.336 146.034C644.372 146.389 644.391 146.706 644.391 146.984V150.067H643.16V139.198H644.172L644.336 140.223H644.391C644.682 139.813 645.02 139.517 645.402 139.334C645.785 139.152 646.227 139.061 646.729 139.061C647.704 139.061 648.46 139.401 648.998 140.08C649.54 140.754 649.812 141.707 649.812 142.937C649.812 144.163 649.54 145.12 648.998 145.808C648.456 146.496 647.695 146.84 646.715 146.84ZM646.51 140.093C645.767 140.093 645.229 140.303 644.896 140.722C644.568 141.141 644.4 141.8 644.391 142.698V142.937C644.391 143.953 644.559 144.689 644.896 145.145C645.234 145.596 645.781 145.822 646.537 145.822C647.166 145.822 647.656 145.567 648.007 145.056C648.362 144.546 648.54 143.835 648.54 142.923C648.54 142.007 648.362 141.308 648.007 140.825C647.656 140.337 647.157 140.093 646.51 140.093ZM655.328 146.84C654.321 146.84 653.546 146.478 653.004 145.753H652.922L652.949 146.034C652.986 146.389 653.004 146.706 653.004 146.984V150.067H651.773V139.198H652.785L652.949 140.223H653.004C653.296 139.813 653.633 139.517 654.016 139.334C654.398 139.152 654.84 139.061 655.342 139.061C656.317 139.061 657.074 139.401 657.611 140.08C658.154 140.754 658.425 141.707 658.425 142.937C658.425 144.163 658.154 145.12 657.611 145.808C657.069 146.496 656.308 146.84 655.328 146.84ZM655.123 140.093C654.38 140.093 653.842 140.303 653.51 140.722C653.182 141.141 653.013 141.8 653.004 142.698V142.937C653.004 143.953 653.173 144.689 653.51 145.145C653.847 145.596 654.394 145.822 655.15 145.822C655.779 145.822 656.269 145.567 656.62 145.056C656.976 144.546 657.153 143.835 657.153 142.923C657.153 142.007 656.976 141.308 656.62 140.825C656.269 140.337 655.77 140.093 655.123 140.093ZM666.908 142.937C666.908 144.163 666.598 145.12 665.979 145.808C665.359 146.496 664.502 146.84 663.408 146.84C662.729 146.84 662.128 146.683 661.604 146.369C661.079 146.05 660.676 145.594 660.394 145.001C660.111 144.409 659.97 143.721 659.97 142.937C659.97 141.716 660.275 140.765 660.886 140.086C661.496 139.403 662.353 139.061 663.456 139.061C664.513 139.061 665.352 139.41 665.972 140.107C666.596 140.8 666.908 141.743 666.908 142.937ZM661.241 142.937C661.241 143.88 661.426 144.598 661.795 145.09C662.169 145.578 662.718 145.822 663.442 145.822C664.158 145.822 664.702 145.578 665.076 145.09C665.45 144.598 665.637 143.88 665.637 142.937C665.637 141.994 665.448 141.285 665.069 140.811C664.696 140.333 664.146 140.093 663.422 140.093C661.968 140.093 661.241 141.041 661.241 142.937ZM670.347 142.294C671.764 142.294 672.473 141.912 672.473 141.146C672.473 140.435 671.905 140.08 670.771 140.08C670.41 140.08 670.076 140.114 669.766 140.182C669.456 140.25 669.084 140.376 668.651 140.558L668.221 139.581C669 139.234 669.873 139.061 670.839 139.061C671.718 139.061 672.407 139.236 672.903 139.587C673.4 139.938 673.648 140.421 673.648 141.037C673.648 141.889 673.179 142.443 672.24 142.698V142.752C672.81 142.917 673.229 143.153 673.498 143.463C673.767 143.773 673.901 144.163 673.901 144.632C673.901 145.32 673.617 145.861 673.047 146.252C672.477 146.644 671.693 146.84 670.695 146.84C669.592 146.84 668.74 146.679 668.139 146.355V145.248C668.973 145.639 669.82 145.835 670.682 145.835C671.324 145.835 671.819 145.728 672.165 145.514C672.511 145.3 672.685 144.983 672.685 144.564C672.685 144.136 672.509 143.819 672.158 143.614C671.807 143.404 671.27 143.299 670.545 143.299H669.533V142.294H670.347ZM681.493 136.75C680.401 138.794 679.855 140.805 679.855 142.784C679.855 144.762 680.401 146.774 681.493 148.818L680.569 149.308C679.253 147.17 678.595 144.996 678.595 142.784C678.595 140.572 679.253 138.397 680.569 136.26L681.493 136.75ZM684.67 146.704H683.382V137.38H688.632V138.43H684.67V141.622H688.464V142.672H684.67V146.704ZM696.207 144.016H694.947V146.704H693.729V144.016H689.851L689.683 143.036L693.547 137.38H694.947V142.994H696.207V144.016ZM693.729 142.994V138.78L690.929 142.994H693.729ZM697.469 148.818C698.561 146.774 699.107 144.762 699.107 142.784C699.107 140.805 698.561 138.794 697.469 136.75L698.393 136.26C699.709 138.397 700.367 140.572 700.367 142.784C700.367 144.996 699.709 147.17 698.393 149.308L697.469 148.818Z" fill="#002E6D"/>
<path d="M735 117.222H862C870.284 117.222 877 123.938 877 132.222V153.333C877 161.618 870.284 168.333 862 168.333H735V117.222Z" fill="#EFEFEF"/>
<path d="M760.555 144.335H759.352V141.704H752.475V144.335H751.271V140.583H752.044C752.718 139.434 753.302 138.042 753.794 136.406C754.286 134.77 754.576 133.204 754.662 131.709H759.283V140.583H760.555V144.335ZM758.032 140.583V132.844H755.77C755.683 133.979 755.405 135.303 754.936 136.816C754.471 138.329 753.949 139.584 753.37 140.583H758.032ZM765.251 141.84C764.125 141.84 763.241 141.501 762.599 140.822C761.961 140.138 761.642 139.199 761.642 138.005C761.642 136.802 761.94 135.845 762.537 135.134C763.134 134.419 763.941 134.061 764.957 134.061C765.9 134.061 766.652 134.366 767.213 134.977C767.773 135.583 768.054 136.406 768.054 137.445V138.19H762.913C762.936 139.042 763.152 139.689 763.562 140.131C763.973 140.573 764.554 140.794 765.306 140.794C765.707 140.794 766.087 140.76 766.447 140.692C766.807 140.619 767.229 140.48 767.712 140.275V141.355C767.297 141.533 766.908 141.658 766.543 141.731C766.178 141.804 765.748 141.84 765.251 141.84ZM764.943 135.066C764.355 135.066 763.891 135.255 763.549 135.633C763.207 136.012 763.004 136.538 762.94 137.212H766.762C766.753 136.511 766.591 135.977 766.276 135.613C765.962 135.248 765.518 135.066 764.943 135.066ZM774.397 134.198H775.744L772.538 137.814L776.011 141.704H774.582L771.191 137.896V141.704H769.961V134.198H771.191V137.841L774.397 134.198ZM783.756 137.937C783.756 139.163 783.446 140.12 782.826 140.808C782.206 141.496 781.35 141.84 780.256 141.84C779.577 141.84 778.975 141.683 778.451 141.369C777.927 141.05 777.524 140.594 777.241 140.001C776.959 139.409 776.817 138.721 776.817 137.937C776.817 136.716 777.123 135.765 777.733 135.086C778.344 134.403 779.201 134.061 780.304 134.061C781.361 134.061 782.2 134.41 782.819 135.107C783.444 135.8 783.756 136.743 783.756 137.937ZM778.089 137.937C778.089 138.88 778.273 139.598 778.643 140.09C779.016 140.578 779.565 140.822 780.29 140.822C781.006 140.822 781.55 140.578 781.924 140.09C782.298 139.598 782.484 138.88 782.484 137.937C782.484 136.994 782.295 136.285 781.917 135.811C781.543 135.333 780.994 135.093 780.27 135.093C778.816 135.093 778.089 136.041 778.089 137.937ZM789.703 140.528C789.84 140.031 790.013 139.518 790.223 138.99L792.178 134.198H793.764V141.704H792.656V135.517C792.497 136.014 792.31 136.536 792.096 137.083L790.223 141.704H789.225L787.352 137.055C787.26 136.836 787.169 136.597 787.078 136.337C786.992 136.078 786.905 135.804 786.818 135.517V141.704H785.711V134.198H787.249L789.143 138.805C789.311 139.234 789.498 139.808 789.703 140.528ZM797.387 141.704H796.156V134.198H802.5V141.704H801.27V135.25H797.387V141.704ZM808.085 141.84C806.959 141.84 806.075 141.501 805.433 140.822C804.795 140.138 804.476 139.199 804.476 138.005C804.476 136.802 804.774 135.845 805.371 135.134C805.968 134.419 806.775 134.061 807.791 134.061C808.734 134.061 809.486 134.366 810.047 134.977C810.607 135.583 810.888 136.406 810.888 137.445V138.19H805.747C805.77 139.042 805.986 139.689 806.396 140.131C806.807 140.573 807.388 140.794 808.14 140.794C808.541 140.794 808.921 140.76 809.281 140.692C809.641 140.619 810.063 140.48 810.546 140.275V141.355C810.131 141.533 809.742 141.658 809.377 141.731C809.012 141.804 808.582 141.84 808.085 141.84ZM807.777 135.066C807.189 135.066 806.725 135.255 806.383 135.633C806.041 136.012 805.838 136.538 805.774 137.212H809.596C809.587 136.511 809.425 135.977 809.11 135.613C808.796 135.248 808.352 135.066 807.777 135.066ZM814.025 134.198V137.322H818.1V134.198H819.33V141.704H818.1V138.361H814.025V141.704H812.795V134.198H814.025ZM824.73 141.84C823.65 141.84 822.81 141.51 822.208 140.849C821.606 140.184 821.306 139.231 821.306 137.992C821.306 136.734 821.609 135.765 822.215 135.086C822.826 134.403 823.694 134.061 824.819 134.061C825.184 134.061 825.544 134.1 825.899 134.177C826.259 134.25 826.556 134.346 826.788 134.464L826.412 135.49C825.779 135.253 825.239 135.134 824.792 135.134C824.035 135.134 823.477 135.374 823.117 135.852C822.757 136.326 822.577 137.035 822.577 137.978C822.577 138.885 822.757 139.58 823.117 140.063C823.477 140.542 824.01 140.781 824.717 140.781C825.378 140.781 826.027 140.635 826.665 140.343V141.437C826.146 141.706 825.501 141.84 824.73 141.84ZM833.084 141.704L832.845 140.637H832.79C832.416 141.107 832.043 141.426 831.669 141.594C831.3 141.758 830.833 141.84 830.268 141.84C829.529 141.84 828.951 141.647 828.531 141.259C828.112 140.872 827.902 140.325 827.902 139.619C827.902 138.097 829.103 137.299 831.505 137.226L832.776 137.178V136.734C832.776 136.164 832.653 135.745 832.407 135.476C832.161 135.203 831.767 135.066 831.225 135.066C830.828 135.066 830.452 135.125 830.097 135.244C829.746 135.362 829.415 135.494 829.105 135.64L828.729 134.717C829.108 134.517 829.52 134.36 829.967 134.246C830.413 134.132 830.855 134.075 831.293 134.075C832.2 134.075 832.874 134.275 833.316 134.676C833.758 135.077 833.979 135.715 833.979 136.59V141.704H833.084ZM830.548 140.849C831.236 140.849 831.776 140.665 832.168 140.295C832.564 139.922 832.763 139.393 832.763 138.709V138.033L831.655 138.081C830.794 138.112 830.165 138.249 829.769 138.491C829.377 138.732 829.181 139.113 829.181 139.632C829.181 140.024 829.299 140.325 829.536 140.535C829.778 140.744 830.115 140.849 830.548 140.849ZM843.714 144.308H842.511V141.704H836.311V134.198H837.541V140.665H841.424V134.198H842.654V140.678H843.714V144.308ZM846.318 134.198V138.778L846.264 140.104L846.236 140.487L850.256 134.198H851.767V141.704H850.618V137.281L850.639 136.331L850.673 135.428L846.681 141.704H845.156V134.198H846.318ZM854.631 141.704H853.202L855.342 138.552C854.768 138.406 854.332 138.149 854.036 137.78C853.74 137.411 853.592 136.955 853.592 136.413C853.592 135.72 853.826 135.178 854.296 134.786C854.765 134.394 855.417 134.198 856.251 134.198H859.614V141.704H858.384V138.723H856.559L854.631 141.704ZM854.781 136.426C854.781 137.274 855.392 137.698 856.613 137.698H858.384V135.223H856.381C855.857 135.223 855.458 135.326 855.185 135.531C854.916 135.736 854.781 136.034 854.781 136.426ZM752.214 146.594C751.434 148.054 751.044 149.49 751.044 150.904C751.044 152.317 751.434 153.754 752.214 155.214L751.554 155.564C750.614 154.037 750.144 152.484 750.144 150.904C750.144 149.324 750.614 147.77 751.554 146.244L752.214 146.594ZM754.483 153.704H753.563V147.044H757.313V147.794H754.483V150.074H757.193V150.824H754.483V153.704ZM762.724 151.784H761.824V153.704H760.954V151.784H758.184L758.064 151.084L760.824 147.044H761.824V151.054H762.724V151.784ZM760.954 151.054V148.044L758.954 151.054H760.954ZM763.919 155.314L763.329 154.994C763.722 154.207 763.932 153.42 763.959 152.634L764.829 152.724C764.789 153.644 764.485 154.507 763.919 155.314ZM773.856 153.704H772.772L769.545 150.085V153.704H768.646V146.565H769.545V150.022L772.694 146.565H773.715L770.614 150.032L773.856 153.704ZM778.788 153.704H777.895V149.075H776.317C776.226 150.247 776.103 151.168 775.946 151.838C775.793 152.506 775.591 152.996 775.341 153.308C775.093 153.617 774.776 153.772 774.389 153.772C774.177 153.772 774.022 153.749 773.925 153.704V153.044C773.993 153.07 774.084 153.083 774.198 153.083C774.556 153.083 774.841 152.706 775.053 151.951C775.268 151.195 775.435 149.993 775.556 148.342H778.788V153.704ZM783.798 153.704L783.627 152.942H783.588C783.321 153.277 783.054 153.505 782.787 153.625C782.523 153.743 782.19 153.801 781.786 153.801C781.259 153.801 780.845 153.663 780.546 153.386C780.246 153.11 780.097 152.719 780.097 152.214C780.097 151.127 780.954 150.557 782.67 150.505L783.578 150.471V150.154C783.578 149.747 783.49 149.447 783.314 149.255C783.139 149.06 782.857 148.962 782.47 148.962C782.187 148.962 781.918 149.005 781.664 149.089C781.413 149.174 781.177 149.268 780.956 149.373L780.688 148.713C780.958 148.57 781.252 148.458 781.571 148.376C781.89 148.295 782.206 148.254 782.519 148.254C783.166 148.254 783.648 148.398 783.964 148.684C784.28 148.971 784.438 149.426 784.438 150.051V153.704H783.798ZM781.986 153.093C782.478 153.093 782.864 152.961 783.144 152.698C783.427 152.431 783.568 152.053 783.568 151.565V151.082L782.777 151.116C782.162 151.139 781.713 151.236 781.43 151.409C781.15 151.581 781.01 151.853 781.01 152.224C781.01 152.504 781.094 152.719 781.264 152.869C781.436 153.018 781.677 153.093 781.986 153.093ZM788.251 153.801C787.479 153.801 786.879 153.565 786.449 153.093C786.02 152.618 785.805 151.938 785.805 151.052C785.805 150.154 786.021 149.462 786.454 148.977C786.89 148.489 787.51 148.245 788.314 148.245C788.575 148.245 788.832 148.272 789.086 148.328C789.343 148.38 789.555 148.448 789.721 148.533L789.452 149.265C789 149.096 788.614 149.011 788.295 149.011C787.755 149.011 787.356 149.182 787.099 149.524C786.841 149.862 786.713 150.369 786.713 151.042C786.713 151.69 786.841 152.187 787.099 152.532C787.356 152.874 787.737 153.044 788.241 153.044C788.713 153.044 789.177 152.94 789.633 152.732V153.513C789.262 153.705 788.801 153.801 788.251 153.801ZM793.056 153.801C792.284 153.801 791.684 153.565 791.254 153.093C790.824 152.618 790.609 151.938 790.609 151.052C790.609 150.154 790.826 149.462 791.259 148.977C791.695 148.489 792.315 148.245 793.119 148.245C793.38 148.245 793.637 148.272 793.891 148.328C794.148 148.38 794.359 148.448 794.525 148.533L794.257 149.265C793.804 149.096 793.419 149.011 793.1 149.011C792.559 149.011 792.16 149.182 791.903 149.524C791.646 149.862 791.518 150.369 791.518 151.042C791.518 151.69 791.646 152.187 791.903 152.532C792.16 152.874 792.541 153.044 793.046 153.044C793.518 153.044 793.982 152.94 794.438 152.732V153.513C794.066 153.705 793.606 153.801 793.056 153.801ZM796.591 150.544H797.982C798.679 150.544 799.193 150.671 799.525 150.925C799.857 151.179 800.023 151.558 800.023 152.063C800.023 152.607 799.848 153.017 799.496 153.293C799.145 153.567 798.627 153.704 797.943 153.704H795.712V148.342H796.591V150.544ZM799.154 152.112C799.154 151.822 799.057 151.611 798.861 151.477C798.669 151.34 798.339 151.272 797.87 151.272H796.591V152.996H797.86C798.723 152.996 799.154 152.701 799.154 152.112ZM801.791 153.704H800.912V148.342H801.791V153.704ZM805.766 146.565H807.802C808.759 146.565 809.449 146.708 809.872 146.995C810.299 147.278 810.512 147.724 810.512 148.333C810.512 148.756 810.396 149.106 810.165 149.382C809.934 149.656 809.597 149.833 809.154 149.915V149.963C809.704 150.058 810.108 150.248 810.365 150.535C810.626 150.821 810.756 151.2 810.756 151.672C810.756 152.31 810.538 152.808 810.102 153.167C809.665 153.525 809.057 153.704 808.275 153.704H805.766V146.565ZM806.664 149.602H807.982C808.542 149.602 808.949 149.513 809.203 149.333C809.457 149.154 809.584 148.855 809.584 148.435C809.584 148.044 809.444 147.763 809.164 147.59C808.887 147.418 808.448 147.332 807.846 147.332H806.664V149.602ZM806.664 150.354V152.942H808.104C808.677 152.942 809.102 152.831 809.379 152.61C809.656 152.389 809.794 152.053 809.794 151.604C809.794 151.178 809.647 150.863 809.354 150.662C809.062 150.457 808.622 150.354 808.036 150.354H806.664ZM815.126 148.342V151.614L815.087 152.561L815.067 152.834L817.938 148.342H819.018V153.704H818.197V150.544L818.212 149.866L818.236 149.221L815.385 153.704H814.296V148.342H815.126ZM826.059 147.253C825.29 147.253 824.687 147.511 824.247 148.025C823.808 148.539 823.588 149.242 823.588 150.134C823.588 151.056 823.801 151.767 824.228 152.268C824.654 152.766 825.261 153.015 826.049 153.015C826.557 153.015 827.128 152.921 827.763 152.732V153.513C827.46 153.624 827.169 153.699 826.889 153.738C826.609 153.78 826.286 153.801 825.922 153.801C824.87 153.801 824.06 153.482 823.49 152.844C822.924 152.203 822.641 151.296 822.641 150.125C822.641 149.389 822.776 148.744 823.046 148.191C823.319 147.638 823.715 147.211 824.232 146.912C824.753 146.612 825.365 146.462 826.068 146.462C826.824 146.462 827.481 146.602 828.041 146.882L827.68 147.644C827.11 147.384 826.57 147.253 826.059 147.253ZM832.226 153.704H831.347V148.342H835.878V153.704H834.999V149.094H832.226V153.704ZM842.245 151.013C842.245 151.889 842.024 152.572 841.581 153.064C841.138 153.556 840.526 153.801 839.745 153.801C839.26 153.801 838.83 153.689 838.456 153.464C838.082 153.236 837.794 152.911 837.592 152.488C837.39 152.065 837.289 151.573 837.289 151.013C837.289 150.141 837.507 149.462 837.943 148.977C838.38 148.489 838.992 148.245 839.779 148.245C840.535 148.245 841.133 148.494 841.576 148.992C842.022 149.486 842.245 150.16 842.245 151.013ZM838.197 151.013C838.197 151.687 838.329 152.2 838.593 152.551C838.86 152.9 839.252 153.074 839.77 153.074C840.281 153.074 840.67 152.9 840.937 152.551C841.203 152.2 841.337 151.687 841.337 151.013C841.337 150.339 841.202 149.833 840.932 149.495C840.665 149.153 840.272 148.982 839.755 148.982C838.716 148.982 838.197 149.659 838.197 151.013ZM850.951 153.704H850.053V150.774C849.568 150.946 849.162 151.065 848.837 151.13C848.511 151.192 848.179 151.223 847.841 151.223C847.164 151.223 846.645 151.067 846.283 150.754C845.922 150.439 845.741 149.991 845.741 149.412V146.565H846.64V149.285C846.64 149.669 846.741 149.957 846.942 150.149C847.144 150.338 847.473 150.432 847.929 150.432C848.238 150.432 848.536 150.408 848.822 150.359C849.112 150.31 849.522 150.198 850.053 150.022V146.565H850.951V153.704ZM858.251 153.704H857.362V147.356H853.793V153.704H852.895V146.565H858.251V153.704ZM859.787 155.214C860.567 153.754 860.957 152.317 860.957 150.904C860.957 149.49 860.567 148.054 859.787 146.594L860.447 146.244C861.387 147.77 861.857 149.324 861.857 150.904C861.857 152.484 861.387 154.037 860.447 155.564L859.787 155.214Z" fill="#002E6D"/>
<path d="M959 132.222C959 123.938 965.716 117.222 974 117.222H1086C1094.28 117.222 1101 123.938 1101 132.222V153.333C1101 161.618 1094.28 168.333 1086 168.333H974C965.716 168.333 959 161.618 959 153.333V132.222Z" fill="#EFEFEF"/>
<path d="M977.814 146.704H976.55V137.817H973.426V136.709H980.918V137.817H977.814V146.704ZM985.484 146.84C984.477 146.84 983.702 146.478 983.16 145.753H983.078L983.105 146.034C983.142 146.389 983.16 146.706 983.16 146.984V150.067H981.93V139.198H982.941L983.105 140.223H983.16C983.452 139.813 983.789 139.517 984.172 139.334C984.555 139.152 984.997 139.061 985.498 139.061C986.473 139.061 987.23 139.401 987.768 140.08C988.31 140.754 988.581 141.707 988.581 142.937C988.581 144.163 988.31 145.12 987.768 145.808C987.225 146.496 986.464 146.84 985.484 146.84ZM985.279 140.093C984.536 140.093 983.999 140.303 983.666 140.722C983.338 141.141 983.169 141.8 983.16 142.698V142.937C983.16 143.953 983.329 144.689 983.666 145.145C984.003 145.596 984.55 145.822 985.307 145.822C985.936 145.822 986.425 145.567 986.776 145.056C987.132 144.546 987.31 143.835 987.31 142.923C987.31 142.007 987.132 141.308 986.776 140.825C986.425 140.337 985.926 140.093 985.279 140.093ZM995.178 146.704L994.938 145.637H994.884C994.51 146.107 994.136 146.426 993.763 146.594C993.394 146.758 992.926 146.84 992.361 146.84C991.623 146.84 991.044 146.647 990.625 146.259C990.206 145.872 989.996 145.325 989.996 144.619C989.996 143.097 991.197 142.299 993.599 142.226L994.87 142.178V141.734C994.87 141.164 994.747 140.745 994.501 140.476C994.255 140.203 993.861 140.066 993.318 140.066C992.922 140.066 992.546 140.125 992.19 140.244C991.84 140.362 991.509 140.494 991.199 140.64L990.823 139.717C991.201 139.517 991.614 139.36 992.061 139.246C992.507 139.132 992.949 139.075 993.387 139.075C994.294 139.075 994.968 139.275 995.41 139.676C995.852 140.077 996.073 140.715 996.073 141.59V146.704H995.178ZM992.642 145.849C993.33 145.849 993.87 145.665 994.262 145.295C994.658 144.922 994.856 144.393 994.856 143.709V143.033L993.749 143.081C992.888 143.112 992.259 143.249 991.862 143.491C991.47 143.732 991.274 144.113 991.274 144.632C991.274 145.024 991.393 145.325 991.63 145.535C991.871 145.744 992.209 145.849 992.642 145.849ZM999.635 139.198V142.322H1003.71V139.198H1004.94V146.704H1003.71V143.361H999.635V146.704H998.404V139.198H999.635ZM1010.34 146.84C1009.26 146.84 1008.42 146.51 1007.82 145.849C1007.22 145.184 1006.92 144.231 1006.92 142.992C1006.92 141.734 1007.22 140.765 1007.82 140.086C1008.43 139.403 1009.3 139.061 1010.43 139.061C1010.79 139.061 1011.15 139.1 1011.51 139.177C1011.87 139.25 1012.17 139.346 1012.4 139.464L1012.02 140.49C1011.39 140.253 1010.85 140.134 1010.4 140.134C1009.64 140.134 1009.09 140.374 1008.73 140.852C1008.37 141.326 1008.19 142.035 1008.19 142.978C1008.19 143.885 1008.37 144.58 1008.73 145.063C1009.09 145.542 1009.62 145.781 1010.33 145.781C1010.99 145.781 1011.64 145.635 1012.27 145.343V146.437C1011.75 146.706 1011.11 146.84 1010.34 146.84ZM1015.29 146.704H1014.06V139.198H1020.4V146.704H1019.17V140.25H1015.29V146.704ZM1028.51 146.704H1027.26V140.223H1025.05C1024.92 141.864 1024.75 143.153 1024.53 144.092C1024.32 145.027 1024.03 145.712 1023.68 146.15C1023.34 146.583 1022.89 146.799 1022.35 146.799C1022.05 146.799 1021.84 146.767 1021.7 146.704V145.781C1021.8 145.817 1021.92 145.835 1022.08 145.835C1022.59 145.835 1022.98 145.307 1023.28 144.25C1023.58 143.192 1023.82 141.508 1023.98 139.198H1028.51V146.704ZM1035.52 146.704L1035.28 145.637H1035.23C1034.86 146.107 1034.48 146.426 1034.11 146.594C1033.74 146.758 1033.27 146.84 1032.71 146.84C1031.97 146.84 1031.39 146.647 1030.97 146.259C1030.55 145.872 1030.34 145.325 1030.34 144.619C1030.34 143.097 1031.54 142.299 1033.94 142.226L1035.22 142.178V141.734C1035.22 141.164 1035.09 140.745 1034.85 140.476C1034.6 140.203 1034.21 140.066 1033.66 140.066C1033.27 140.066 1032.89 140.125 1032.54 140.244C1032.19 140.362 1031.85 140.494 1031.54 140.64L1031.17 139.717C1031.55 139.517 1031.96 139.36 1032.41 139.246C1032.85 139.132 1033.29 139.075 1033.73 139.075C1034.64 139.075 1035.31 139.275 1035.76 139.676C1036.2 140.077 1036.42 140.715 1036.42 141.59V146.704H1035.52ZM1032.99 145.849C1033.68 145.849 1034.22 145.665 1034.61 145.295C1035 144.922 1035.2 144.393 1035.2 143.709V143.033L1034.09 143.081C1033.23 143.112 1032.6 143.249 1032.21 143.491C1031.82 143.732 1031.62 144.113 1031.62 144.632C1031.62 145.024 1031.74 145.325 1031.98 145.535C1032.22 145.744 1032.55 145.849 1032.99 145.849ZM1039.98 139.198V142.322H1044.05V139.198H1045.29V146.704H1044.05V143.361H1039.98V146.704H1038.75V139.198H1039.98ZM1052.86 140.237H1050.41V146.704H1049.19V140.237H1046.77V139.198H1052.86V140.237ZM1058.98 146.704L1058.75 145.637H1058.69C1058.32 146.107 1057.94 146.426 1057.57 146.594C1057.2 146.758 1056.73 146.84 1056.17 146.84C1055.43 146.84 1054.85 146.647 1054.43 146.259C1054.01 145.872 1053.8 145.325 1053.8 144.619C1053.8 143.097 1055 142.299 1057.41 142.226L1058.68 142.178V141.734C1058.68 141.164 1058.55 140.745 1058.31 140.476C1058.06 140.203 1057.67 140.066 1057.12 140.066C1056.73 140.066 1056.35 140.125 1056 140.244C1055.65 140.362 1055.32 140.494 1055.01 140.64L1054.63 139.717C1055.01 139.517 1055.42 139.36 1055.87 139.246C1056.31 139.132 1056.76 139.075 1057.19 139.075C1058.1 139.075 1058.77 139.275 1059.22 139.676C1059.66 140.077 1059.88 140.715 1059.88 141.59V146.704H1058.98ZM1056.45 145.849C1057.14 145.849 1057.68 145.665 1058.07 145.295C1058.46 144.922 1058.66 144.393 1058.66 143.709V143.033L1057.56 143.081C1056.69 143.112 1056.07 143.249 1055.67 143.491C1055.28 143.732 1055.08 144.113 1055.08 144.632C1055.08 145.024 1055.2 145.325 1055.44 145.535C1055.68 145.744 1056.02 145.849 1056.45 145.849ZM1069.61 149.308H1068.41V146.704H1062.21V139.198H1063.44V145.665H1067.32V139.198H1068.55V145.678H1069.61V149.308ZM1072.22 139.198V143.778L1072.16 145.104L1072.14 145.487L1076.16 139.198H1077.67V146.704H1076.52V142.281L1076.54 141.331L1076.57 140.428L1072.58 146.704H1071.06V139.198H1072.22ZM1080.53 146.704H1079.1L1081.24 143.552C1080.67 143.406 1080.23 143.149 1079.94 142.78C1079.64 142.411 1079.49 141.955 1079.49 141.413C1079.49 140.72 1079.73 140.178 1080.2 139.786C1080.67 139.394 1081.32 139.198 1082.15 139.198H1085.51V146.704H1084.28V143.723H1082.46L1080.53 146.704ZM1080.68 141.426C1080.68 142.274 1081.29 142.698 1082.51 142.698H1084.28V140.223H1082.28C1081.76 140.223 1081.36 140.326 1081.08 140.531C1080.82 140.736 1080.68 141.034 1080.68 141.426Z" fill="#002E6D"/>
<path d="M735 30C735 21.7157 741.716 15 750 15H862C870.284 15 877 21.7157 877 30V51.1111C877 59.3954 870.284 66.1111 862 66.1111H750C741.716 66.1111 735 59.3954 735 51.1111V30Z" fill="#EFEFEF"/>
<path d="M750.841 26.4873V27.6084H746.459V36.4814H745.201V26.4873H750.841ZM755.086 36.6182C753.96 36.6182 753.076 36.2786 752.434 35.5996C751.796 34.916 751.477 33.9772 751.477 32.7832C751.477 31.5801 751.775 30.623 752.372 29.9121C752.969 29.1966 753.776 28.8389 754.792 28.8389C755.735 28.8389 756.487 29.1442 757.048 29.7549C757.608 30.361 757.889 31.1836 757.889 32.2227V32.9678H752.748C752.771 33.82 752.987 34.4671 753.397 34.9092C753.808 35.3512 754.389 35.5723 755.141 35.5723C755.542 35.5723 755.922 35.5381 756.282 35.4697C756.642 35.3968 757.064 35.2578 757.547 35.0527V36.1328C757.132 36.3105 756.743 36.4359 756.378 36.5088C756.013 36.5817 755.583 36.6182 755.086 36.6182ZM754.778 29.8438C754.19 29.8438 753.726 30.0329 753.384 30.4111C753.042 30.7894 752.839 31.3158 752.775 31.9902H756.597C756.588 31.2884 756.426 30.7552 756.111 30.3906C755.797 30.026 755.353 29.8438 754.778 29.8438ZM761.026 36.4814H759.796V28.9756H766.14V36.4814H764.909V30.0283H761.026V36.4814ZM773.167 36.4814L772.928 35.415H772.873C772.499 35.8844 772.126 36.2035 771.752 36.3721C771.383 36.5361 770.916 36.6182 770.351 36.6182C769.612 36.6182 769.034 36.4245 768.614 36.0371C768.195 35.6497 767.985 35.1029 767.985 34.3965C767.985 32.8743 769.186 32.0768 771.588 32.0039L772.859 31.9561V31.5117C772.859 30.9421 772.736 30.5228 772.49 30.2539C772.244 29.9805 771.85 29.8438 771.308 29.8438C770.911 29.8438 770.535 29.903 770.18 30.0215C769.829 30.14 769.498 30.2721 769.188 30.418L768.812 29.4951C769.191 29.2946 769.603 29.1374 770.05 29.0234C770.496 28.9095 770.938 28.8525 771.376 28.8525C772.283 28.8525 772.957 29.0531 773.399 29.4541C773.841 29.8551 774.062 30.4932 774.062 31.3682V36.4814H773.167ZM770.631 35.627C771.319 35.627 771.859 35.4424 772.251 35.0732C772.647 34.6995 772.846 34.1709 772.846 33.4873V32.8105L771.738 32.8584C770.877 32.8903 770.248 33.027 769.852 33.2686C769.46 33.5101 769.264 33.8906 769.264 34.4102C769.264 34.8021 769.382 35.1029 769.619 35.3125C769.861 35.5221 770.198 35.627 770.631 35.627ZM781.575 30.0146H779.121V36.4814H777.904V30.0146H775.484V28.9756H781.575V30.0146ZM789.519 32.7148C789.519 33.9408 789.209 34.8978 788.589 35.5859C787.969 36.2741 787.112 36.6182 786.019 36.6182C785.34 36.6182 784.738 36.4609 784.214 36.1465C783.69 35.8275 783.286 35.3717 783.004 34.7793C782.721 34.1868 782.58 33.4987 782.58 32.7148C782.58 31.4935 782.885 30.5433 783.496 29.8643C784.107 29.1807 784.964 28.8389 786.066 28.8389C787.124 28.8389 787.962 29.1875 788.582 29.8848C789.206 30.5775 789.519 31.5208 789.519 32.7148ZM783.852 32.7148C783.852 33.6582 784.036 34.376 784.405 34.8682C784.779 35.3558 785.328 35.5996 786.053 35.5996C786.768 35.5996 787.313 35.3558 787.687 34.8682C788.06 34.376 788.247 33.6582 788.247 32.7148C788.247 31.7715 788.058 31.0628 787.68 30.5889C787.306 30.1104 786.757 29.8711 786.032 29.8711C784.578 29.8711 783.852 30.819 783.852 32.7148ZM798.877 39.0859H797.674V36.4814H791.474V28.9756H792.704V35.4424H796.587V28.9756H797.817V35.4561H798.877V39.0859ZM803.512 36.6182C802.386 36.6182 801.502 36.2786 800.859 35.5996C800.221 34.916 799.902 33.9772 799.902 32.7832C799.902 31.5801 800.201 30.623 800.798 29.9121C801.395 29.1966 802.201 28.8389 803.218 28.8389C804.161 28.8389 804.913 29.1442 805.474 29.7549C806.034 30.361 806.314 31.1836 806.314 32.2227V32.9678H801.174C801.197 33.82 801.413 34.4671 801.823 34.9092C802.233 35.3512 802.814 35.5723 803.566 35.5723C803.967 35.5723 804.348 35.5381 804.708 35.4697C805.068 35.3968 805.49 35.2578 805.973 35.0527V36.1328C805.558 36.3105 805.168 36.4359 804.804 36.5088C804.439 36.5817 804.008 36.6182 803.512 36.6182ZM803.204 29.8438C802.616 29.8438 802.151 30.0329 801.81 30.4111C801.468 30.7894 801.265 31.3158 801.201 31.9902H805.022C805.013 31.2884 804.852 30.7552 804.537 30.3906C804.223 30.026 803.778 29.8438 803.204 29.8438ZM813.937 36.4814H812.686V30.001H810.478C810.35 31.6416 810.177 32.9313 809.958 33.8701C809.744 34.8044 809.461 35.4902 809.11 35.9277C808.764 36.3607 808.32 36.5771 807.777 36.5771C807.481 36.5771 807.265 36.5452 807.128 36.4814V35.5586C807.224 35.5951 807.351 35.6133 807.511 35.6133C808.012 35.6133 808.411 35.0846 808.707 34.0273C809.008 32.9701 809.243 31.2861 809.411 28.9756H813.937V36.4814ZM822.03 36.4814H820.779V30.001H818.571C818.444 31.6416 818.271 32.9313 818.052 33.8701C817.838 34.8044 817.555 35.4902 817.204 35.9277C816.858 36.3607 816.413 36.5771 815.871 36.5771C815.575 36.5771 815.358 36.5452 815.222 36.4814V35.5586C815.317 35.5951 815.445 35.6133 815.604 35.6133C816.106 35.6133 816.505 35.0846 816.801 34.0273C817.102 32.9701 817.336 31.2861 817.505 28.9756H822.03V36.4814ZM834.15 32.7148C834.15 33.9453 833.854 34.9046 833.262 35.5928C832.674 36.2764 831.865 36.6182 830.835 36.6182C829.86 36.6182 829.083 36.3151 828.504 35.709C827.93 35.0983 827.611 34.2415 827.547 33.1387H825.64V36.4814H824.409V28.9756H825.64V32.0996H827.561C827.661 31.056 827.998 30.2516 828.572 29.6865C829.146 29.1214 829.91 28.8389 830.862 28.8389C831.874 28.8389 832.674 29.1875 833.262 29.8848C833.854 30.582 834.15 31.5254 834.15 32.7148ZM828.805 32.7148C828.805 33.6628 828.966 34.3805 829.29 34.8682C829.614 35.3558 830.133 35.5996 830.849 35.5996C831.564 35.5996 832.081 35.3558 832.4 34.8682C832.719 34.3805 832.879 33.6628 832.879 32.7148C832.879 31.7806 832.717 31.0742 832.394 30.5957C832.07 30.1126 831.555 29.8711 830.849 29.8711C830.133 29.8711 829.614 30.1126 829.29 30.5957C828.966 31.0742 828.805 31.7806 828.805 32.7148ZM839.667 36.6182C838.66 36.6182 837.885 36.2559 837.343 35.5312H837.261L837.288 35.8115C837.325 36.167 837.343 36.4837 837.343 36.7617V39.8447H836.112V28.9756H837.124L837.288 30.001H837.343C837.634 29.5908 837.972 29.2946 838.354 29.1123C838.737 28.93 839.179 28.8389 839.681 28.8389C840.656 28.8389 841.412 29.1784 841.95 29.8574C842.493 30.5319 842.764 31.4844 842.764 32.7148C842.764 33.9408 842.493 34.8978 841.95 35.5859C841.408 36.2741 840.647 36.6182 839.667 36.6182ZM839.462 29.8711C838.719 29.8711 838.181 30.0807 837.849 30.5C837.521 30.9193 837.352 31.5778 837.343 32.4756V32.7148C837.343 33.7311 837.511 34.4671 837.849 34.9229C838.186 35.374 838.733 35.5996 839.489 35.5996C840.118 35.5996 840.608 35.3444 840.959 34.834C841.314 34.3236 841.492 33.6126 841.492 32.7012C841.492 31.7852 841.314 31.0856 840.959 30.6025C840.608 30.1149 840.109 29.8711 839.462 29.8711ZM845.956 28.9756V32.0996H850.03V28.9756H851.261V36.4814H850.03V33.1387H845.956V36.4814H844.726V28.9756H845.956ZM858.288 36.4814L858.049 35.415H857.994C857.62 35.8844 857.247 36.2035 856.873 36.3721C856.504 36.5361 856.037 36.6182 855.472 36.6182C854.733 36.6182 854.155 36.4245 853.735 36.0371C853.316 35.6497 853.106 35.1029 853.106 34.3965C853.106 32.8743 854.307 32.0768 856.709 32.0039L857.98 31.9561V31.5117C857.98 30.9421 857.857 30.5228 857.611 30.2539C857.365 29.9805 856.971 29.8438 856.429 29.8438C856.032 29.8438 855.656 29.903 855.301 30.0215C854.95 30.14 854.619 30.2721 854.31 30.418L853.934 29.4951C854.312 29.2946 854.724 29.1374 855.171 29.0234C855.618 28.9095 856.06 28.8525 856.497 28.8525C857.404 28.8525 858.078 29.0531 858.521 29.4541C858.963 29.8551 859.184 30.4932 859.184 31.3682V36.4814H858.288ZM855.752 35.627C856.44 35.627 856.98 35.4424 857.372 35.0732C857.769 34.6995 857.967 34.1709 857.967 33.4873V32.8105L856.859 32.8584C855.998 32.8903 855.369 33.027 854.973 33.2686C854.581 33.5101 854.385 33.8906 854.385 34.4102C854.385 34.8021 854.503 35.1029 854.74 35.3125C854.982 35.5221 855.319 35.627 855.752 35.627ZM861.979 36.4814H860.551L862.69 33.3301C862.116 33.1842 861.681 32.9268 861.385 32.5576C861.089 32.1885 860.94 31.7327 860.94 31.1904C860.94 30.4977 861.175 29.9554 861.645 29.5635C862.114 29.1715 862.766 28.9756 863.6 28.9756H866.963V36.4814H865.732V33.501H863.907L861.979 36.4814ZM862.13 31.2041C862.13 32.0518 862.741 32.4756 863.962 32.4756H865.732V30.001H863.729C863.205 30.001 862.807 30.1035 862.533 30.3086C862.264 30.5137 862.13 30.8122 862.13 31.2041ZM772.9 45.9756H774.247L771.041 49.5918L774.514 53.4814H773.085L769.694 49.6738V53.4814H768.464V45.9756H769.694V49.6191L772.9 45.9756ZM780.509 53.4814L780.27 52.415H780.215C779.841 52.8844 779.467 53.2035 779.094 53.3721C778.725 53.5361 778.257 53.6182 777.692 53.6182C776.954 53.6182 776.375 53.4245 775.956 53.0371C775.537 52.6497 775.327 52.1029 775.327 51.3965C775.327 49.8743 776.528 49.0768 778.93 49.0039L780.201 48.9561V48.5117C780.201 47.9421 780.078 47.5228 779.832 47.2539C779.586 46.9805 779.192 46.8438 778.649 46.8438C778.253 46.8438 777.877 46.903 777.521 47.0215C777.171 47.14 776.84 47.2721 776.53 47.418L776.154 46.4951C776.533 46.2946 776.945 46.1374 777.392 46.0234C777.838 45.9095 778.28 45.8525 778.718 45.8525C779.625 45.8525 780.299 46.0531 780.741 46.4541C781.183 46.8551 781.404 47.4932 781.404 48.3682V53.4814H780.509ZM777.973 52.627C778.661 52.627 779.201 52.4424 779.593 52.0732C779.989 51.6995 780.188 51.1709 780.188 50.4873V49.8105L779.08 49.8584C778.219 49.8903 777.59 50.027 777.193 50.2686C776.801 50.5101 776.605 50.8906 776.605 51.4102C776.605 51.8021 776.724 52.1029 776.961 52.3125C777.202 52.5221 777.54 52.627 777.973 52.627ZM787.29 53.6182C786.283 53.6182 785.508 53.2559 784.966 52.5312H784.884L784.911 52.8115C784.948 53.167 784.966 53.4837 784.966 53.7617V56.8447H783.735V45.9756H784.747L784.911 47.001H784.966C785.257 46.5908 785.595 46.2946 785.978 46.1123C786.36 45.93 786.802 45.8389 787.304 45.8389C788.279 45.8389 789.035 46.1784 789.573 46.8574C790.116 47.5319 790.387 48.4844 790.387 49.7148C790.387 50.9408 790.116 51.8978 789.573 52.5859C789.031 53.2741 788.27 53.6182 787.29 53.6182ZM787.085 46.8711C786.342 46.8711 785.804 47.0807 785.472 47.5C785.144 47.9193 784.975 48.5778 784.966 49.4756V49.7148C784.966 50.7311 785.134 51.4671 785.472 51.9229C785.809 52.374 786.356 52.5996 787.112 52.5996C787.741 52.5996 788.231 52.3444 788.582 51.834C788.938 51.3236 789.115 50.6126 789.115 49.7012C789.115 48.7852 788.938 48.0856 788.582 47.6025C788.231 47.1149 787.732 46.8711 787.085 46.8711ZM799.752 56.0859H798.549V53.4814H792.349V45.9756H793.579V52.4424H797.462V45.9756H798.692V52.4561H799.752V56.0859ZM802.356 45.9756V50.5557L802.302 51.8818L802.274 52.2646L806.294 45.9756H807.805V53.4814H806.656V49.0586L806.677 48.1084L806.711 47.2061L802.719 53.4814H801.194V45.9756H802.356ZM811.435 45.9756V49.0996H815.509V45.9756H816.739V53.4814H815.509V50.1387H811.435V53.4814H810.204V45.9756H811.435ZM825.653 49.7148C825.653 50.9408 825.343 51.8978 824.724 52.5859C824.104 53.2741 823.247 53.6182 822.153 53.6182C821.474 53.6182 820.873 53.4609 820.349 53.1465C819.825 52.8275 819.421 52.3717 819.139 51.7793C818.856 51.1868 818.715 50.4987 818.715 49.7148C818.715 48.4935 819.02 47.5433 819.631 46.8643C820.242 46.1807 821.098 45.8389 822.201 45.8389C823.258 45.8389 824.097 46.1875 824.717 46.8848C825.341 47.5775 825.653 48.5208 825.653 49.7148ZM819.986 49.7148C819.986 50.6582 820.171 51.376 820.54 51.8682C820.914 52.3558 821.463 52.5996 822.188 52.5996C822.903 52.5996 823.448 52.3558 823.821 51.8682C824.195 51.376 824.382 50.6582 824.382 49.7148C824.382 48.7715 824.193 48.0628 823.814 47.5889C823.441 47.1104 822.892 46.8711 822.167 46.8711C820.713 46.8711 819.986 47.819 819.986 49.7148ZM831.601 52.3057C831.737 51.8089 831.91 51.2962 832.12 50.7676L834.075 45.9756H835.661V53.4814H834.554V47.2949C834.394 47.7917 834.207 48.3135 833.993 48.8604L832.12 53.4814H831.122L829.249 48.833C829.158 48.6143 829.067 48.375 828.976 48.1152C828.889 47.8555 828.802 47.582 828.716 47.2949V53.4814H827.608V45.9756H829.146L831.04 50.583C831.209 51.0114 831.396 51.5856 831.601 52.3057ZM842.688 53.4814L842.449 52.415H842.395C842.021 52.8844 841.647 53.2035 841.273 53.3721C840.904 53.5361 840.437 53.6182 839.872 53.6182C839.134 53.6182 838.555 53.4245 838.136 53.0371C837.716 52.6497 837.507 52.1029 837.507 51.3965C837.507 49.8743 838.708 49.0768 841.109 49.0039L842.381 48.9561V48.5117C842.381 47.9421 842.258 47.5228 842.012 47.2539C841.766 46.9805 841.371 46.8438 840.829 46.8438C840.433 46.8438 840.057 46.903 839.701 47.0215C839.35 47.14 839.02 47.2721 838.71 47.418L838.334 46.4951C838.712 46.2946 839.125 46.1374 839.571 46.0234C840.018 45.9095 840.46 45.8525 840.897 45.8525C841.804 45.8525 842.479 46.0531 842.921 46.4541C843.363 46.8551 843.584 47.4932 843.584 48.3682V53.4814H842.688ZM840.152 52.627C840.84 52.627 841.381 52.4424 841.772 52.0732C842.169 51.6995 842.367 51.1709 842.367 50.4873V49.8105L841.26 49.8584C840.398 49.8903 839.77 50.027 839.373 50.2686C838.981 50.5101 838.785 50.8906 838.785 51.4102C838.785 51.8021 838.904 52.1029 839.141 52.3125C839.382 52.5221 839.719 52.627 840.152 52.627Z" fill="#002E6D"/>
<rect x="157" y="117.222" width="2" height="51.1111" fill="#D8D8D8"/>
<rect x="301" y="117.222" width="2" height="51.1111" fill="#D8D8D8"/>
<rect x="445" y="117.222" width="2" height="51.1111" fill="#D8D8D8"/>
<rect x="589" y="117.222" width="2" height="51.1111" fill="#D8D8D8"/>
<rect x="733" y="117.222" width="2" height="51.1111" fill="#D8D8D8"/>
</g>
<path d="M889.405 142.778H945.946" stroke="#D8D8D8" stroke-width="2"/>
<circle cx="891" cy="142.407" r="3" fill="#D8D8D8"/>
<circle cx="944" cy="142.407" r="3" fill="#D8D8D8"/>
<ellipse cx="891" cy="40.5556" rx="3" ry="2.55556" fill="#D8D8D8"/>
<ellipse cx="1030" cy="104.444" rx="3" ry="2.55556" fill="#D8D8D8"/>
<path d="M889 40.5555H1015C1023.28 40.5555 1030 47.2713 1030 55.5555V106.148" stroke="#D8D8D8" stroke-width="2"/>
<path d="M724 40.5556C724 41.967 722.657 43.1111 721 43.1111C719.343 43.1111 718 41.967 718 40.5556C718 39.1442 719.343 38 721 38C722.657 38 724 39.1442 724 40.5556Z" fill="#D8D8D8"/>
<path d="M665 104.444C665 105.856 663.657 107 662 107C660.343 107 659 105.856 659 104.444C659 103.033 660.343 101.889 662 101.889C663.657 101.889 665 103.033 665 104.444Z" fill="#D8D8D8"/>
<path fill-rule="evenodd" clip-rule="evenodd" d="M661 53.3334C661 45.8059 668.163 39.7037 677 39.7037H721V41.4074H677C669.268 41.4074 663 46.7469 663 53.3334V106.148H661V53.3334Z" fill="#D8D8D8"/>
<path d="M521 104.444C521 105.856 519.657 107 518 107C516.343 107 515 105.856 515 104.444C515 103.033 516.343 101.889 518 101.889C519.657 101.889 521 103.033 521 104.444Z" fill="#D8D8D8"/>
<path d="M809 104.444C809 105.856 807.657 107 806 107C804.343 107 803 105.856 803 104.444C803 103.033 804.343 101.889 806 101.889C807.657 101.889 809 103.033 809 104.444Z" fill="#D8D8D8"/>
<path fill-rule="evenodd" clip-rule="evenodd" d="M528 87.4074C523.029 87.4074 519 90.8399 519 95.0741V104.87H517V95.0741C517 89.899 521.925 85.7037 528 85.7037H796C802.075 85.7037 807 89.899 807 95.0741V104.87H805V95.0741C805 90.8399 800.971 87.4074 796 87.4074H528Z" fill="#D8D8D8"/>
<defs>
<filter id="filter0_dd_13_473" x="0" y="0" width="1116" height="183.333" filterUnits="userSpaceOnUse" color-interpolation-filters="sRGB">
<feFlood flood-opacity="0" result="BackgroundImageFix"/>
<feColorMatrix in="SourceAlpha" type="matrix" values="0 0 0 0 0 0 0 0 0 0 0 0 0 0 0 0 0 0 127 0" result="hardAlpha"/>
<feOffset dx="5" dy="5"/>
<feGaussianBlur stdDeviation="5"/>
<feComposite in2="hardAlpha" operator="out"/>
<feColorMatrix type="matrix" values="0 0 0 0 0.778542 0 0 0 0 0.805182 0 0 0 0 0.841667 0 0 0 1 0"/>
<feBlend mode="normal" in2="BackgroundImageFix" result="effect1_dropShadow_13_473"/>
<feColorMatrix in="SourceAlpha" type="matrix" values="0 0 0 0 0 0 0 0 0 0 0 0 0 0 0 0 0 0 127 0" result="hardAlpha"/>
<feOffset dx="-5" dy="-5"/>
<feGaussianBlur stdDeviation="5"/>
<feComposite in2="hardAlpha" operator="out"/>
<feColorMatrix type="matrix" values="0 0 0 0 1 0 0 0 0 1 0 0 0 0 1 0 0 0 1 0"/>
<feBlend mode="normal" in2="effect1_dropShadow_13_473" result="effect2_dropShadow_13_473"/>
<feBlend mode="normal" in="SourceGraphic" in2="effect2_dropShadow_13_473" result="shape"/>
</filter>
</defs>
</svg>
