<svg width="50" height="50" viewBox="0 0 50 50" fill="none" xmlns="http://www.w3.org/2000/svg">
<path fill-rule="evenodd" clip-rule="evenodd" d="M7 25.0001C7 24.4478 7.47405 24.0001 8.05882 24.0001H41.9412C42.5259 24.0001 43 24.4478 43 25.0001C43 25.5524 42.5259 26.0001 41.9412 26.0001H8.05882C7.47405 26.0001 7 25.5524 7 25.0001Z" fill="white"/>
<path fill-rule="evenodd" clip-rule="evenodd" d="M19.5 13.293C19.8905 13.6835 19.8905 14.3167 19.5 14.7072L9.20711 25.0001L19.5 35.293C19.8905 35.6835 19.8905 36.3167 19.5 36.7072C19.1095 37.0978 18.4763 37.0978 18.0858 36.7072L7.43934 26.0608C6.85356 25.475 6.85355 24.5252 7.43934 23.9395L18.0858 13.293C18.4763 12.9025 19.1095 12.9025 19.5 13.293Z" fill="white"/>
</svg>
