<svg width="38" height="38" viewBox="0 0 38 38" fill="none" xmlns="http://www.w3.org/2000/svg">
<path d="M2.4375 0.999999C2.04054 0.603045 1.39695 0.603045 1 1C0.603045 1.39695 0.603045 2.04055 1 2.4375L17.5625 19L0.999999 35.5625C0.603045 35.9595 0.603045 36.603 1 37C1.39695 37.397 2.04055 37.397 2.4375 37L19 20.4375L35.5625 37C35.9595 37.397 36.603 37.397 37 37C37.397 36.603 37.397 35.9595 37 35.5625L20.4375 19L37 2.4375C37.397 2.04054 37.397 1.39695 37 1C36.603 0.603045 35.9595 0.603045 35.5625 1L19 17.5625L2.4375 0.999999Z" fill="#EFEFEF"/>
</svg>
