<svg width="50" height="50" viewBox="0 0 50 50" fill="none" xmlns="http://www.w3.org/2000/svg">
<path fill-rule="evenodd" clip-rule="evenodd" d="M25 41C33.8366 41 41 33.8366 41 25C41 16.1634 33.8366 9 25 9C16.1634 9 9 16.1634 9 25C9 33.8366 16.1634 41 25 41ZM25 43C34.9411 43 43 34.9411 43 25C43 15.0589 34.9411 7 25 7C15.0589 7 7 15.0589 7 25C7 34.9411 15.0589 43 25 43Z" fill="white"/>
<path d="M24 21C24 20.4477 24.4477 20 25 20C25.5523 20 26 20.4477 26 21V34C26 34.5523 25.5523 35 25 35C24.4477 35 24 34.5523 24 34V21Z" fill="white"/>
<path d="M23 17C23 15.8954 23.8954 15 25 15C26.1046 15 27 15.8954 27 17C27 18.1046 26.1046 19 25 19C23.8954 19 23 18.1046 23 17Z" fill="white"/>
</svg>
