<svg width="50" height="50" viewBox="0 0 50 50" fill="none" xmlns="http://www.w3.org/2000/svg">
<path fill-rule="evenodd" clip-rule="evenodd" d="M43 25C43 25.5523 42.5259 26 41.9412 26L8.05882 26C7.47405 26 7 25.5523 7 25C7 24.4477 7.47405 24 8.05882 24L41.9412 24C42.5259 24 43 24.4477 43 25Z" fill="white"/>
<path fill-rule="evenodd" clip-rule="evenodd" d="M30.5 36.7071C30.1095 36.3166 30.1095 35.6834 30.5 35.2929L40.7929 25L30.5 14.7071C30.1095 14.3166 30.1095 13.6834 30.5 13.2929C30.8905 12.9024 31.5237 12.9024 31.9142 13.2929L42.5607 23.9393C43.1464 24.5251 43.1464 25.4749 42.5607 26.0607L31.9142 36.7071C31.5237 37.0976 30.8905 37.0976 30.5 36.7071Z" fill="white"/>
</svg>
