<svg width="100%" height="100%" viewBox="0 0 294 22" fill="none" xmlns="http://www.w3.org/2000/svg">
<path d="M6 19.4445C6 20.8559 4.65685 22 3 22C1.34315 22 0 20.8559 0 19.4445C0 18.0331 1.34315 16.8889 3 16.8889C4.65685 16.8889 6 18.0331 6 19.4445Z" fill="#D8D8D8"/>
<path d="M294 19.4445C294 20.8559 292.657 22 291 22C289.343 22 288 20.8559 288 19.4445C288 18.0331 289.343 16.8889 291 16.8889C292.657 16.8889 294 18.0331 294 19.4445Z" fill="#D8D8D8"/>
<path fill-rule="evenodd" clip-rule="evenodd" d="M13 2.40744C8.02944 2.40744 4 5.83992 4 10.0741V19.8704H2V10.0741C2 4.89899 6.92487 0.703735 13 0.703735H281C287.075 0.703735 292 4.89899 292 10.0741V19.8704H290V10.0741C290 5.83992 285.971 2.40744 281 2.40744H13Z" fill="#D8D8D8"/>
</svg>
