<svg width="100%" height="100%" viewBox="0 0 65 69" fill="none" xmlns="http://www.w3.org/2000/svg">
<path d="M0 2.55556C0 3.96695 1.34315 5.11111 3 5.11111C4.65685 5.11111 6 3.96695 6 2.55556C6 1.14416 4.65685 0 3 0C1.34315 0 0 1.14416 0 2.55556Z" fill="#D8D8D8"/>
<path d="M59 66.4445C59 67.8559 60.3431 69 62 69C63.6569 69 65 67.8559 65 66.4445C65 65.0331 63.6569 63.8889 62 63.8889C60.3431 63.8889 59 65.0331 59 66.4445Z" fill="#D8D8D8"/>
<path fill-rule="evenodd" clip-rule="evenodd" d="M63 15.3334C63 7.80593 55.8366 1.70374 47 1.70374H3V3.40744H47C54.732 3.40744 61 8.74686 61 15.3334V68.1482H63V15.3334Z" fill="#D8D8D8"/>
</svg>
