<svg width="199" height="30" viewBox="0 0 199 30" fill="none" xmlns="http://www.w3.org/2000/svg">
<path d="M5.642 1.44119C5.11 1.44119 4.62933 1.53452 4.2 1.72119C3.77067 1.89852 3.40667 2.16452 3.108 2.51919C2.80933 2.86452 2.58067 3.28919 2.422 3.79319C2.26333 4.28786 2.184 4.84786 2.184 5.47319C2.184 6.29452 2.31 7.00852 2.562 7.61519C2.82333 8.22186 3.206 8.68852 3.71 9.01519C4.22333 9.34186 4.86267 9.50519 5.628 9.50519C6.06667 9.50519 6.482 9.46786 6.874 9.39319C7.266 9.31852 7.64867 9.22519 8.022 9.11319V10.2052C7.64867 10.3452 7.26133 10.4479 6.86 10.5132C6.468 10.5785 5.99667 10.6112 5.446 10.6112C4.42867 10.6112 3.57933 10.4012 2.898 9.98119C2.21667 9.56119 1.70333 8.96386 1.358 8.18919C1.022 7.41452 0.854 6.50452 0.854 5.45919C0.854 4.70319 0.956667 4.01252 1.162 3.38719C1.37667 2.76186 1.68467 2.22052 2.086 1.76319C2.49667 1.30586 3.00067 0.955858 3.598 0.713191C4.19533 0.461191 4.88133 0.335191 5.656 0.335191C6.16933 0.335191 6.664 0.386524 7.14 0.489191C7.616 0.591858 8.04067 0.736524 8.414 0.923191L7.91 1.98719C7.602 1.84719 7.25667 1.72119 6.874 1.60919C6.50067 1.49719 6.09 1.44119 5.642 1.44119ZM13.0457 10.6112C12.383 10.6112 11.7904 10.4759 11.2677 10.2052C10.7544 9.93452 10.3484 9.51452 10.0497 8.94519C9.76037 8.37586 9.6157 7.64786 9.6157 6.76119C9.6157 5.83719 9.7697 5.08586 10.0777 4.50719C10.3857 3.92852 10.801 3.50386 11.3237 3.23319C11.8557 2.96252 12.4577 2.82719 13.1297 2.82719C13.5124 2.82719 13.881 2.86919 14.2357 2.95319C14.5904 3.02786 14.8797 3.12119 15.1037 3.23319L14.7257 4.25519C14.5017 4.17119 14.2404 4.09186 13.9417 4.01719C13.643 3.94252 13.363 3.90519 13.1017 3.90519C12.5977 3.90519 12.1824 4.01252 11.8557 4.22719C11.529 4.44186 11.2864 4.75919 11.1277 5.17919C10.969 5.59919 10.8897 6.12186 10.8897 6.74719C10.8897 7.34452 10.969 7.85319 11.1277 8.27319C11.2864 8.69319 11.5244 9.01052 11.8417 9.22519C12.159 9.43986 12.5557 9.54719 13.0317 9.54719C13.4424 9.54719 13.8017 9.50519 14.1097 9.42119C14.427 9.33719 14.7164 9.23452 14.9777 9.11319V10.2052C14.7257 10.3359 14.4457 10.4339 14.1377 10.4992C13.839 10.5739 13.475 10.6112 13.0457 10.6112ZM16.7623 10.4712V2.96719H17.9943V6.04719H19.9403C20.5936 6.04719 21.1303 6.12652 21.5503 6.28519C21.9703 6.44386 22.2829 6.68186 22.4883 6.99919C22.6936 7.30719 22.7963 7.69919 22.7963 8.17519C22.7963 8.64186 22.6936 9.04786 22.4883 9.39319C22.2923 9.73852 21.9796 10.0045 21.5503 10.1912C21.1303 10.3779 20.5749 10.4712 19.8843 10.4712H16.7623ZM19.7723 9.47719C20.3043 9.47719 20.7383 9.38852 21.0743 9.21119C21.4103 9.02452 21.5783 8.70252 21.5783 8.24519C21.5783 7.78786 21.4243 7.47986 21.1163 7.32119C20.8083 7.15319 20.3649 7.06919 19.7863 7.06919H17.9943V9.47719H19.7723ZM24.0423 10.4712V2.96719H25.2743V10.4712H24.0423ZM33.3708 10.4712H32.1248V3.98919H29.9128C29.8194 5.17452 29.7028 6.18719 29.5628 7.02719C29.4228 7.85786 29.2454 8.53452 29.0308 9.05719C28.8161 9.57986 28.5594 9.96252 28.2608 10.2052C27.9621 10.4479 27.6121 10.5692 27.2108 10.5692C27.0894 10.5692 26.9681 10.5599 26.8468 10.5412C26.7348 10.5319 26.6414 10.5085 26.5668 10.4712V9.54719C26.6228 9.56586 26.6834 9.57986 26.7488 9.58919C26.8141 9.59852 26.8794 9.60319 26.9448 9.60319C27.1501 9.60319 27.3368 9.51919 27.5048 9.35119C27.6728 9.18319 27.8221 8.92652 27.9528 8.58119C28.0928 8.23586 28.2188 7.80186 28.3308 7.27919C28.4428 6.74719 28.5408 6.12186 28.6248 5.40319C28.7088 4.68452 28.7834 3.87252 28.8488 2.96719H33.3708V10.4712ZM40.1905 2.96719H41.5345L38.3285 6.57919L41.8005 10.4712H40.3725L36.9845 6.66319V10.4712H35.7525V2.96719H36.9845V6.60719L40.1905 2.96719ZM44.3247 7.54519C44.3247 7.62919 44.32 7.75052 44.3107 7.90919C44.3107 8.05852 44.306 8.22186 44.2967 8.39919C44.2873 8.56719 44.278 8.73052 44.2687 8.88919C44.2593 9.03852 44.25 9.15986 44.2407 9.25319L48.2587 2.96719H49.7707V10.4712H48.6227V6.04719C48.6227 5.89786 48.6227 5.70186 48.6227 5.45919C48.632 5.21652 48.6413 4.97852 48.6507 4.74519C48.66 4.50252 48.6693 4.32052 48.6787 4.19919L44.6887 10.4712H43.1627V2.96719H44.3247V7.54519ZM56.3986 2.96719V6.08919H60.4726V2.96719H61.7046V10.4712H60.4726V7.12519H56.3986V10.4712H55.1666V2.96719H56.3986ZM66.9226 2.84119C67.8373 2.84119 68.514 3.04186 68.9526 3.44319C69.3913 3.84452 69.6106 4.48386 69.6106 5.36119V10.4712H68.7146L68.4766 9.40719H68.4206C68.206 9.67786 67.982 9.90652 67.7486 10.0932C67.5246 10.2705 67.2633 10.4012 66.9646 10.4852C66.6753 10.5692 66.3206 10.6112 65.9006 10.6112C65.4526 10.6112 65.0466 10.5319 64.6826 10.3732C64.328 10.2145 64.048 9.97186 63.8426 9.64519C63.6373 9.30919 63.5346 8.88919 63.5346 8.38519C63.5346 7.63852 63.8286 7.06452 64.4166 6.66319C65.0046 6.25252 65.91 6.02852 67.1326 5.99119L68.4066 5.94919V5.50119C68.4066 4.87586 68.2713 4.44186 68.0006 4.19919C67.73 3.95652 67.3473 3.83519 66.8526 3.83519C66.4606 3.83519 66.0873 3.89586 65.7326 4.01719C65.378 4.12919 65.0466 4.25986 64.7386 4.40919L64.3606 3.48519C64.6873 3.30786 65.0746 3.15852 65.5226 3.03719C65.9706 2.90652 66.4373 2.84119 66.9226 2.84119ZM67.2866 6.84519C66.3533 6.88252 65.7046 7.03186 65.3406 7.29319C64.986 7.55452 64.8086 7.92319 64.8086 8.39919C64.8086 8.81919 64.9346 9.12719 65.1866 9.32319C65.448 9.51919 65.7793 9.61719 66.1806 9.61719C66.8153 9.61719 67.3426 9.44452 67.7626 9.09919C68.1826 8.74452 68.3926 8.20319 68.3926 7.47519V6.80319L67.2866 6.84519ZM76.0981 7.54519C76.0981 7.62919 76.0934 7.75052 76.0841 7.90919C76.0841 8.05852 76.0794 8.22186 76.0701 8.39919C76.0608 8.56719 76.0514 8.73052 76.0421 8.88919C76.0328 9.03852 76.0234 9.15986 76.0141 9.25319L80.0321 2.96719H81.5441V10.4712H80.3961V6.04719C80.3961 5.89786 80.3961 5.70186 80.3961 5.45919C80.4054 5.21652 80.4148 4.97852 80.4241 4.74519C80.4334 4.50252 80.4428 4.32052 80.4521 4.19919L76.4621 10.4712H74.9361V2.96719H76.0981V7.54519ZM86.9422 10.6112C86.2795 10.6112 85.6869 10.4759 85.1642 10.2052C84.6509 9.93452 84.2449 9.51452 83.9462 8.94519C83.6569 8.37586 83.5122 7.64786 83.5122 6.76119C83.5122 5.83719 83.6662 5.08586 83.9742 4.50719C84.2822 3.92852 84.6975 3.50386 85.2202 3.23319C85.7522 2.96252 86.3542 2.82719 87.0262 2.82719C87.4089 2.82719 87.7775 2.86919 88.1322 2.95319C88.4869 3.02786 88.7762 3.12119 89.0002 3.23319L88.6222 4.25519C88.3982 4.17119 88.1369 4.09186 87.8382 4.01719C87.5395 3.94252 87.2595 3.90519 86.9982 3.90519C86.4942 3.90519 86.0789 4.01252 85.7522 4.22719C85.4255 4.44186 85.1829 4.75919 85.0242 5.17919C84.8655 5.59919 84.7862 6.12186 84.7862 6.74719C84.7862 7.34452 84.8655 7.85319 85.0242 8.27319C85.1829 8.69319 85.4209 9.01052 85.7382 9.22519C86.0555 9.43986 86.4522 9.54719 86.9282 9.54719C87.3389 9.54719 87.6982 9.50519 88.0062 9.42119C88.3235 9.33719 88.6129 9.23452 88.8742 9.11319V10.2052C88.6222 10.3359 88.3422 10.4339 88.0342 10.4992C87.7355 10.5739 87.3715 10.6112 86.9422 10.6112ZM95.8388 4.00319H93.3888V10.4712H92.1708V4.00319H89.7488V2.96719H95.8388V4.00319ZM103.704 6.70519C103.704 7.33052 103.62 7.88586 103.452 8.37119C103.294 8.84719 103.06 9.25319 102.752 9.58919C102.454 9.92519 102.085 10.1819 101.646 10.3592C101.217 10.5272 100.736 10.6112 100.204 10.6112C99.7096 10.6112 99.2522 10.5272 98.8322 10.3592C98.4122 10.1819 98.0482 9.92519 97.7402 9.58919C97.4322 9.25319 97.1896 8.84719 97.0122 8.37119C96.8442 7.88586 96.7602 7.33052 96.7602 6.70519C96.7602 5.87452 96.9002 5.17452 97.1802 4.60519C97.4602 4.02652 97.8616 3.58786 98.3842 3.28919C98.9069 2.98119 99.5276 2.82719 100.246 2.82719C100.928 2.82719 101.525 2.98119 102.038 3.28919C102.561 3.58786 102.967 4.02652 103.256 4.60519C103.555 5.17452 103.704 5.87452 103.704 6.70519ZM98.0342 6.70519C98.0342 7.29319 98.1089 7.80652 98.2582 8.24519C98.4169 8.67452 98.6596 9.00586 98.9862 9.23919C99.3129 9.47252 99.7282 9.58919 100.232 9.58919C100.736 9.58919 101.152 9.47252 101.478 9.23919C101.805 9.00586 102.043 8.67452 102.192 8.24519C102.351 7.80652 102.43 7.29319 102.43 6.70519C102.43 6.10786 102.351 5.59919 102.192 5.17919C102.034 4.75919 101.791 4.43719 101.464 4.21319C101.147 3.97986 100.732 3.86319 100.218 3.86319C99.4529 3.86319 98.8976 4.11519 98.5522 4.61919C98.2069 5.12319 98.0342 5.81852 98.0342 6.70519ZM106.598 5.69719C106.598 6.13586 106.719 6.46252 106.962 6.67719C107.214 6.88252 107.573 6.98519 108.04 6.98519C108.507 6.98519 108.931 6.91519 109.314 6.77519C109.697 6.62586 110.089 6.42986 110.49 6.18719V2.96719H111.722V10.4712H110.49V7.12519C110.07 7.39586 109.655 7.61052 109.244 7.76919C108.843 7.91852 108.357 7.99319 107.788 7.99319C107.023 7.99319 106.425 7.79252 105.996 7.39119C105.576 6.98986 105.366 6.45319 105.366 5.78119V2.96719H106.598V5.69719ZM115.338 2.96719V6.08919H119.412V2.96719H120.644V10.4712H119.412V7.12519H115.338V10.4712H114.106V2.96719H115.338ZM124.182 7.54519C124.182 7.62919 124.177 7.75052 124.168 7.90919C124.168 8.05852 124.163 8.22186 124.154 8.39919C124.145 8.56719 124.135 8.73052 124.126 8.88919C124.117 9.03852 124.107 9.15986 124.098 9.25319L128.116 2.96719H129.628V10.4712H128.48V6.04719C128.48 5.89786 128.48 5.70186 128.48 5.45919C128.489 5.21652 128.499 4.97852 128.508 4.74519C128.517 4.50252 128.527 4.32052 128.536 4.19919L124.546 10.4712H123.02V2.96719H124.182V7.54519ZM136.454 2.96719H137.798L134.592 6.57919L138.064 10.4712H136.636L133.248 6.66319V10.4712H132.016V2.96719H133.248V6.60719L136.454 2.96719ZM140.588 7.54519C140.588 7.62919 140.584 7.75052 140.574 7.90919C140.574 8.05852 140.57 8.22186 140.56 8.39919C140.551 8.56719 140.542 8.73052 140.532 8.88919C140.523 9.03852 140.514 9.15986 140.504 9.25319L144.522 2.96719H146.034V10.4712H144.886V6.04719C144.886 5.89786 144.886 5.70186 144.886 5.45919C144.896 5.21652 144.905 4.97852 144.914 4.74519C144.924 4.50252 144.933 4.32052 144.942 4.19919L140.952 10.4712H139.426V2.96719H140.588V7.54519ZM149.612 9.18319C149.762 9.33252 149.836 9.52386 149.836 9.75719C149.836 9.99052 149.762 10.1865 149.612 10.3452C149.463 10.4945 149.267 10.5692 149.024 10.5692C148.782 10.5692 148.586 10.4945 148.436 10.3452C148.287 10.1865 148.212 9.99052 148.212 9.75719C148.212 9.52386 148.287 9.33252 148.436 9.18319C148.586 9.02452 148.782 8.94519 149.024 8.94519C149.267 8.94519 149.463 9.02452 149.612 9.18319ZM149.612 4.80119C149.762 4.95052 149.836 5.14186 149.836 5.37519C149.836 5.60852 149.762 5.80452 149.612 5.96319C149.463 6.11252 149.267 6.18719 149.024 6.18719C148.782 6.18719 148.586 6.11252 148.436 5.96319C148.287 5.80452 148.212 5.60852 148.212 5.37519C148.212 5.14186 148.287 4.95052 148.436 4.80119C148.586 4.64252 148.782 4.56319 149.024 4.56319C149.267 4.56319 149.463 4.64252 149.612 4.80119ZM5.446 17.9792C6.41667 17.9792 7.238 18.1239 7.91 18.4132L7.7 19.4072C6.99067 19.1552 6.29067 19.0292 5.6 19.0292C4.44267 19.0292 3.53267 19.3605 2.87 20.0232C2.21667 20.6859 1.89 21.6145 1.89 22.8092C1.89 24.0039 2.21667 24.9325 2.87 25.5952C3.53267 26.2579 4.44267 26.5892 5.6 26.5892C6.29067 26.5892 6.99067 26.4632 7.7 26.2112L7.91 27.2052C7.238 27.4945 6.41667 27.6392 5.446 27.6392C3.94333 27.6392 2.758 27.1912 1.89 26.2952C1.03133 25.3992 0.602 24.2372 0.602 22.8092C0.602 21.3812 1.03133 20.2192 1.89 19.3232C2.758 18.4272 3.94333 17.9792 5.446 17.9792ZM10.8549 27.4712H9.59492V17.5872H10.8549V21.6052C11.4056 20.9425 12.1009 20.6112 12.9409 20.6112C13.7343 20.6112 14.3269 20.9239 14.7189 21.5492C15.1203 22.1745 15.3209 22.9679 15.3209 23.9292V27.4712H14.0609V23.9712C14.0609 22.4125 13.5476 21.6332 12.5209 21.6332C11.8769 21.6332 11.3216 21.9365 10.8549 22.5432V27.4712ZM21.1269 27.4712V26.6312C20.9122 26.9019 20.6042 27.1352 20.2029 27.3312C19.8015 27.5179 19.3629 27.6112 18.8869 27.6112C18.3269 27.6112 17.8649 27.4432 17.5009 27.1072C17.1462 26.7619 16.9689 26.3092 16.9689 25.7492C16.9689 25.1519 17.1789 24.6899 17.5989 24.3632C18.0189 24.0365 18.6069 23.8499 19.3629 23.8032C19.8949 23.7659 20.4735 23.7472 21.0989 23.7472V23.4532C21.0989 22.2399 20.5762 21.6332 19.5309 21.6332C18.9242 21.6332 18.3315 21.7919 17.7529 22.1092L17.4589 21.1852C18.0935 20.8025 18.8589 20.6112 19.7549 20.6112C20.5575 20.6112 21.1922 20.8585 21.6589 21.3532C22.1255 21.8385 22.3589 22.5292 22.3589 23.4252V27.4712H21.1269ZM19.2509 26.6872C19.9509 26.6872 20.5669 26.3979 21.0989 25.8192V24.5732C20.5855 24.6012 20.0815 24.6432 19.5869 24.6992C18.6535 24.8019 18.1869 25.1519 18.1869 25.7492C18.1869 26.3745 18.5415 26.6872 19.2509 26.6872ZM25.6205 27.4712H24.3605V20.7512H25.5645V21.7312C26.1059 20.9845 26.8199 20.6112 27.7065 20.6112C28.4999 20.6112 29.0925 20.9239 29.4845 21.5492C29.8859 22.1745 30.0865 22.9679 30.0865 23.9292V27.4712H28.8265V23.9712C28.8265 22.4125 28.3132 21.6332 27.2865 21.6332C26.6425 21.6332 26.0872 21.9365 25.6205 22.5432V27.4712ZM42.5403 27.4712H41.2523V23.2852H36.4783V27.4712H35.1903V18.1472H36.4783V22.1932H41.2523V18.1472H42.5403V27.4712ZM44.7743 18.1472H46.0623V26.4212H49.9543V27.4712H44.7743V18.1472ZM52.9851 22.5992L55.3231 18.1472H56.6951L53.6291 23.7892V27.4712H52.3411V23.7892L49.2751 18.1472H50.6471L52.9851 22.5992ZM56.7571 29.7252L55.9311 29.2772C56.4818 28.1759 56.7758 27.0745 56.8131 25.9732L58.0311 26.0992C57.9751 27.3872 57.5504 28.5959 56.7571 29.7252ZM65.6556 20.6112C66.4863 20.6112 67.1256 20.8632 67.5736 21.3672C68.0216 21.8712 68.2456 22.5245 68.2456 23.3272C68.2456 23.7099 68.199 24.0879 68.1056 24.4612H63.8636C63.9103 25.8985 64.643 26.6172 66.0616 26.6172C66.7056 26.6172 67.345 26.4865 67.9796 26.2252L68.1476 27.1632C67.5223 27.4619 66.7663 27.6112 65.8796 27.6112C64.8063 27.6112 63.985 27.2892 63.4156 26.6452C62.8556 25.9919 62.5756 25.1565 62.5756 24.1392C62.5756 23.1312 62.8556 22.2912 63.4156 21.6192C63.9756 20.9472 64.7223 20.6112 65.6556 20.6112ZM65.6136 21.5492C65.1003 21.5492 64.6896 21.7359 64.3816 22.1092C64.0736 22.4825 63.901 22.9445 63.8636 23.4952H67.0276C67.093 22.9352 67.009 22.4732 66.7756 22.1092C66.5423 21.7359 66.155 21.5492 65.6136 21.5492ZM69.0769 21.7732V20.7512H70.2809V19.0292H71.5409V20.7512H73.7529V21.7732H71.5409V25.2032C71.5409 25.6512 71.6109 25.9965 71.7509 26.2392C71.9002 26.4725 72.1709 26.5892 72.5629 26.5892C72.9549 26.5892 73.3095 26.5285 73.6269 26.4072L73.7389 27.3592C73.3469 27.5272 72.8662 27.6112 72.2969 27.6112C71.6062 27.6112 71.0975 27.4012 70.7709 26.9812C70.4442 26.5519 70.2809 25.9732 70.2809 25.2452V21.7732H69.0769ZM82.0761 27.4712V26.6312C81.8614 26.9019 81.5534 27.1352 81.1521 27.3312C80.7508 27.5179 80.3121 27.6112 79.8361 27.6112C79.2761 27.6112 78.8141 27.4432 78.4501 27.1072C78.0954 26.7619 77.9181 26.3092 77.9181 25.7492C77.9181 25.1519 78.1281 24.6899 78.5481 24.3632C78.9681 24.0365 79.5561 23.8499 80.3121 23.8032C80.8441 23.7659 81.4228 23.7472 82.0481 23.7472V23.4532C82.0481 22.2399 81.5254 21.6332 80.4801 21.6332C79.8734 21.6332 79.2808 21.7919 78.7021 22.1092L78.4081 21.1852C79.0428 20.8025 79.8081 20.6112 80.7041 20.6112C81.5068 20.6112 82.1414 20.8585 82.6081 21.3532C83.0748 21.8385 83.3081 22.5292 83.3081 23.4252V27.4712H82.0761ZM80.2001 26.6872C80.9001 26.6872 81.5161 26.3979 82.0481 25.8192V24.5732C81.5348 24.6012 81.0308 24.6432 80.5361 24.6992C79.6028 24.8019 79.1361 25.1519 79.1361 25.7492C79.1361 26.3745 79.4908 26.6872 80.2001 26.6872ZM86.4998 17.5872V25.7352C86.4998 26.2952 86.7378 26.5752 87.2138 26.5752C87.4284 26.5752 87.6384 26.5472 87.8438 26.4912L87.8998 27.4292C87.5918 27.5319 87.2511 27.5832 86.8778 27.5832C86.3178 27.5832 85.9024 27.4199 85.6318 27.0932C85.3704 26.7665 85.2398 26.3325 85.2398 25.7912V17.5872H86.4998ZM90.5089 26.1832C90.6582 26.3325 90.7329 26.5239 90.7329 26.7572C90.7329 26.9905 90.6582 27.1865 90.5089 27.3452C90.3596 27.4945 90.1636 27.5692 89.9209 27.5692C89.6782 27.5692 89.4822 27.4945 89.3329 27.3452C89.1836 27.1865 89.1089 26.9905 89.1089 26.7572C89.1089 26.5239 89.1836 26.3325 89.3329 26.1832C89.4822 26.0245 89.6782 25.9452 89.9209 25.9452C90.1636 25.9452 90.3596 26.0245 90.5089 26.1832ZM100.081 18.1472L103.791 27.4712H102.475L101.621 25.2172H97.2668L96.4268 27.4712H95.1108L98.8208 18.1472H100.081ZM99.4508 19.3232L97.6588 24.1812H101.243L99.4508 19.3232ZM109.651 18.1472L113.361 27.4712H112.045L111.191 25.2172H106.837L105.997 27.4712H104.681L108.391 18.1472H109.651ZM109.021 19.3232L107.229 24.1812H110.813L109.021 19.3232ZM120.246 25.0492C120.246 25.8332 119.933 26.4632 119.308 26.9392C118.683 27.4059 117.903 27.6392 116.97 27.6392C115.962 27.6392 115.071 27.4525 114.296 27.0792L114.548 26.0572C115.323 26.4212 116.121 26.6032 116.942 26.6032C117.558 26.6032 118.048 26.4725 118.412 26.2112C118.785 25.9499 118.972 25.5812 118.972 25.1052C118.972 24.8999 118.93 24.7085 118.846 24.5312C118.762 24.3445 118.673 24.1999 118.58 24.0972C118.496 23.9852 118.337 23.8592 118.104 23.7192C117.88 23.5699 117.707 23.4672 117.586 23.4112C117.465 23.3552 117.245 23.2525 116.928 23.1032C116.153 22.7392 115.551 22.3612 115.122 21.9692C114.702 21.5772 114.492 21.0639 114.492 20.4292C114.492 19.6359 114.758 19.0292 115.29 18.6092C115.831 18.1892 116.555 17.9792 117.46 17.9792C118.375 17.9792 119.182 18.1659 119.882 18.5392L119.644 19.5612C118.935 19.1972 118.207 19.0152 117.46 19.0152C116.331 19.0152 115.766 19.4539 115.766 20.3312C115.766 20.7045 115.878 21.0032 116.102 21.2272C116.326 21.4419 116.755 21.7032 117.39 22.0112C117.754 22.1885 118.011 22.3192 118.16 22.4032C118.319 22.4779 118.561 22.6225 118.888 22.8372C119.215 23.0519 119.453 23.2479 119.602 23.4252C119.761 23.6025 119.905 23.8359 120.036 24.1252C120.176 24.4145 120.246 24.7225 120.246 25.0492ZM121.884 18.1472H123.172V26.4212H127.064V27.4712H121.884V18.1472ZM128.487 27.4712V18.1472H131.077C132.664 18.1472 133.947 18.5859 134.927 19.4632C135.907 20.3405 136.397 21.4559 136.397 22.8092C136.397 24.1625 135.907 25.2779 134.927 26.1552C133.947 27.0325 132.664 27.4712 131.077 27.4712H128.487ZM131.077 26.4352C132.244 26.4352 133.205 26.1132 133.961 25.4692C134.727 24.8159 135.109 23.9292 135.109 22.8092C135.109 21.6892 134.727 20.8072 133.961 20.1632C133.205 19.5099 132.244 19.1832 131.077 19.1832H129.775V26.4352H131.077ZM141.094 19.4912L140.8 18.5252C141.388 18.1612 142.102 17.9792 142.942 17.9792C143.8 17.9792 144.491 18.2312 145.014 18.7352C145.546 19.2392 145.812 19.9112 145.812 20.7512C145.812 21.4792 145.639 22.1325 145.294 22.7112C144.958 23.2899 144.43 23.9525 143.712 24.6992C143.049 25.3712 142.442 25.9499 141.892 26.4352H145.952V27.4712H140.45L140.296 26.7012C141.313 25.6932 142.204 24.7599 142.97 23.9012C143.492 23.3225 143.884 22.7952 144.146 22.3192C144.407 21.8432 144.538 21.3392 144.538 20.8072C144.538 20.2565 144.384 19.8225 144.076 19.5052C143.768 19.1879 143.348 19.0292 142.816 19.0292C142.237 19.0292 141.663 19.1832 141.094 19.4912ZM153.241 19.3092C153.819 20.1959 154.109 21.3625 154.109 22.8092C154.109 24.2559 153.819 25.4225 153.241 26.3092C152.662 27.1959 151.813 27.6392 150.693 27.6392C149.573 27.6392 148.723 27.1959 148.145 26.3092C147.566 25.4225 147.277 24.2559 147.277 22.8092C147.277 21.3625 147.566 20.1959 148.145 19.3092C148.723 18.4225 149.573 17.9792 150.693 17.9792C151.813 17.9792 152.662 18.4225 153.241 19.3092ZM148.551 22.8092C148.551 25.3385 149.265 26.6032 150.693 26.6032C152.121 26.6032 152.835 25.3385 152.835 22.8092C152.835 20.2799 152.121 19.0152 150.693 19.0152C149.265 19.0152 148.551 20.2799 148.551 22.8092ZM155.996 19.4912L155.702 18.5252C156.29 18.1612 157.004 17.9792 157.844 17.9792C158.703 17.9792 159.393 18.2312 159.916 18.7352C160.448 19.2392 160.714 19.9112 160.714 20.7512C160.714 21.4792 160.541 22.1325 160.196 22.7112C159.86 23.2899 159.333 23.9525 158.614 24.6992C157.951 25.3712 157.345 25.9499 156.794 26.4352H160.854V27.4712H155.352L155.198 26.7012C156.215 25.6932 157.107 24.7599 157.872 23.9012C158.395 23.3225 158.787 22.7952 159.048 22.3192C159.309 21.8432 159.44 21.3392 159.44 20.8072C159.44 20.2565 159.286 19.8225 158.978 19.5052C158.67 19.1879 158.25 19.0292 157.718 19.0292C157.139 19.0292 156.565 19.1832 155.996 19.4912ZM168.143 19.3092C168.722 20.1959 169.011 21.3625 169.011 22.8092C169.011 24.2559 168.722 25.4225 168.143 26.3092C167.565 27.1959 166.715 27.6392 165.595 27.6392C164.475 27.6392 163.626 27.1959 163.047 26.3092C162.469 25.4225 162.179 24.2559 162.179 22.8092C162.179 21.3625 162.469 20.1959 163.047 19.3092C163.626 18.4225 164.475 17.9792 165.595 17.9792C166.715 17.9792 167.565 18.4225 168.143 19.3092ZM163.453 22.8092C163.453 25.3385 164.167 26.6032 165.595 26.6032C167.023 26.6032 167.737 25.3385 167.737 22.8092C167.737 20.2799 167.023 19.0152 165.595 19.0152C164.167 19.0152 163.453 20.2799 163.453 22.8092ZM172.116 26.1832C172.266 26.3325 172.34 26.5239 172.34 26.7572C172.34 26.9905 172.266 27.1865 172.116 27.3452C171.967 27.4945 171.771 27.5692 171.528 27.5692C171.286 27.5692 171.09 27.4945 170.94 27.3452C170.791 27.1865 170.716 26.9905 170.716 26.7572C170.716 26.5239 170.791 26.3325 170.94 26.1832C171.09 26.0245 171.286 25.9452 171.528 25.9452C171.771 25.9452 171.967 26.0245 172.116 26.1832ZM180.12 17.9792C180.886 17.9792 181.525 18.1705 182.038 18.5532C182.561 18.9359 182.822 19.4539 182.822 20.1072C182.822 20.9379 182.216 21.7499 181.002 22.5432C181.674 22.9352 182.188 23.3365 182.542 23.7472C182.897 24.1579 183.074 24.6525 183.074 25.2312C183.074 25.9312 182.78 26.5099 182.192 26.9672C181.614 27.4152 180.923 27.6392 180.12 27.6392C179.262 27.6392 178.552 27.4292 177.992 27.0092C177.442 26.5799 177.166 26.0012 177.166 25.2732C177.166 24.3119 177.857 23.4205 179.238 22.5992C178.025 21.8899 177.418 21.0732 177.418 20.1492C177.418 19.4959 177.675 18.9732 178.188 18.5812C178.702 18.1799 179.346 17.9792 180.12 17.9792ZM181.856 25.2452C181.856 24.8159 181.721 24.4612 181.45 24.1812C181.189 23.8919 180.746 23.5559 180.12 23.1732C179.439 23.6492 179.01 23.9805 178.832 24.1672C178.534 24.5032 178.384 24.8765 178.384 25.2872C178.384 25.7165 178.538 26.0572 178.846 26.3092C179.164 26.5519 179.588 26.6732 180.12 26.6732C180.634 26.6732 181.049 26.5379 181.366 26.2672C181.693 25.9965 181.856 25.6559 181.856 25.2452ZM178.622 20.1352C178.622 20.5179 178.734 20.8399 178.958 21.1012C179.192 21.3532 179.579 21.6425 180.12 21.9692C180.624 21.6332 180.998 21.3299 181.24 21.0592C181.492 20.7792 181.618 20.4712 181.618 20.1352C181.618 19.7805 181.483 19.4959 181.212 19.2812C180.942 19.0572 180.578 18.9452 180.12 18.9452C179.654 18.9452 179.285 19.0572 179.014 19.2812C178.753 19.5052 178.622 19.7899 178.622 20.1352ZM190.606 19.3092C191.185 20.1959 191.474 21.3625 191.474 22.8092C191.474 24.2559 191.185 25.4225 190.606 26.3092C190.027 27.1959 189.178 27.6392 188.058 27.6392C186.938 27.6392 186.089 27.1959 185.51 26.3092C184.931 25.4225 184.642 24.2559 184.642 22.8092C184.642 21.3625 184.931 20.1959 185.51 19.3092C186.089 18.4225 186.938 17.9792 188.058 17.9792C189.178 17.9792 190.027 18.4225 190.606 19.3092ZM185.916 22.8092C185.916 25.3385 186.63 26.6032 188.058 26.6032C189.486 26.6032 190.2 25.3385 190.2 22.8092C190.2 20.2799 189.486 19.0152 188.058 19.0152C186.63 19.0152 185.916 20.2799 185.916 22.8092ZM198.191 25.0072C198.191 25.8005 197.902 26.4399 197.323 26.9252C196.745 27.4012 196.003 27.6392 195.097 27.6392C194.295 27.6392 193.543 27.4852 192.843 27.1772L193.095 26.1552C193.749 26.4539 194.388 26.6032 195.013 26.6032C195.62 26.6032 196.087 26.4632 196.413 26.1832C196.749 25.8939 196.917 25.5205 196.917 25.0632C196.917 24.4379 196.67 23.9759 196.175 23.6772C195.69 23.3692 195.074 23.2152 194.327 23.2152H193.781V22.1792H194.285C194.976 22.1792 195.555 22.0159 196.021 21.6892C196.497 21.3532 196.735 20.9145 196.735 20.3732C196.735 19.9345 196.595 19.5985 196.315 19.3652C196.035 19.1319 195.653 19.0152 195.167 19.0152C194.598 19.0152 194.015 19.1505 193.417 19.4212L193.165 18.4552C193.753 18.1379 194.472 17.9792 195.321 17.9792C196.105 17.9792 196.749 18.1845 197.253 18.5952C197.757 19.0059 198.009 19.5425 198.009 20.2052C198.009 21.3065 197.379 22.1139 196.119 22.6272C196.726 22.7859 197.221 23.0752 197.603 23.4952C197.995 23.9152 198.191 24.4192 198.191 25.0072Z" fill="#002E6D"/>
</svg>
