<svg width="33" height="46" viewBox="0 0 33 46" fill="none" xmlns="http://www.w3.org/2000/svg">
<path d="M13.264 0.303997C17.0613 0.303997 20.24 0.666664 22.8 1.392C25.4027 2.11733 27.344 3.312 28.624 4.976C29.9467 6.64 30.608 8.85866 30.608 11.632C30.608 13.424 30.2667 15.024 29.584 16.432C28.944 17.7973 27.9627 18.9493 26.64 19.888C25.36 20.784 23.7813 21.4027 21.904 21.744V22.064C23.824 22.3627 25.552 22.9173 27.088 23.728C28.6667 24.5387 29.904 25.6907 30.8 27.184C31.696 28.6773 32.144 30.6187 32.144 33.008C32.144 35.7813 31.504 38.1493 30.224 40.112C28.944 42.032 27.1093 43.504 24.72 44.528C22.3733 45.5093 19.5573 46 16.272 46H0.208V0.303997H13.264ZM14.416 19.76C18.3413 19.76 21.0293 19.1413 22.48 17.904C23.9307 16.624 24.656 14.7467 24.656 12.272C24.656 9.75467 23.76 7.96267 21.968 6.896C20.2187 5.78667 17.4027 5.232 13.52 5.232H5.968V19.76H14.416ZM5.968 24.56V41.136H15.184C19.2373 41.136 22.0533 40.3467 23.632 38.768C25.2107 37.1893 26 35.12 26 32.56C26 30.9387 25.6373 29.5307 24.912 28.336C24.2293 27.1413 23.056 26.224 21.392 25.584C19.7707 24.9013 17.552 24.56 14.736 24.56H5.968Z" fill="white"/>
</svg>
