<svg width="35" height="42" viewBox="0 0 35 42" fill="none" xmlns="http://www.w3.org/2000/svg">
<path d="M21.375 2H5.875C4.84729 2 3.86166 2.40036 3.13496 3.11299C2.40826 3.82563 2 4.79218 2 5.8V36.2C2 37.2078 2.40826 38.1744 3.13496 38.887C3.86166 39.5996 4.84729 40 5.875 40H29.125C30.1527 40 31.1383 39.5996 31.865 38.887C32.5917 38.1744 33 37.2078 33 36.2V13.4M21.375 2L33 13.4M21.375 2V13.4H33M25.25 22.9H9.75M25.25 30.5H9.75M13.625 15.3H9.75" stroke="#E8F5F8" stroke-width="3" stroke-linecap="round" stroke-linejoin="round"/>
</svg>
