<svg width="1338" height="163" viewBox="0 0 1338 163" fill="none" xmlns="http://www.w3.org/2000/svg">
<g filter="url(#filter0_d_817_15253)">
<path d="M63.5773 1.77903C29.4982 9.28565 4 39.6651 4 76V79C4 120.974 38.0264 155 80 155H83C100.471 155 116.565 149.105 129.402 139.195C154.037 120.177 179.547 95 210.669 95H1286.5C1312.73 95 1334 73.7335 1334 47.5C1334 21.2665 1312.73 0 1286.5 0H76.5C72.0205 0 67.6859 0.620058 63.5773 1.77903Z" fill="white"/>
</g>
<rect x="12" y="6" width="140" height="140" rx="70" fill="#00ACC8"/>
<path d="M91 103L66 75.5L91 48" stroke="#E8F5F8" stroke-width="6" stroke-linecap="round" stroke-linejoin="round"/>
<g filter="url(#filter1_d_817_15253)">
<rect x="1242" y="6" width="83" height="83" rx="41.5" fill="#00ACC8"/>
<path d="M1283.5 56.8261V46.2609M1283.5 41.1739C1283.5 40.9022 1283.5 40.4783 1283.5 40.4783M1303 47.5C1303 36.7304 1294.27 28 1283.5 28C1272.73 28 1264 36.7304 1264 47.5C1264 58.2696 1272.73 67 1283.5 67C1294.27 67 1303 58.2696 1303 47.5Z" stroke="#E8F5F8" stroke-width="3" stroke-linecap="round" stroke-linejoin="round"/>
</g>
<g filter="url(#filter2_d_817_15253)">
<rect x="1147" y="6" width="83" height="83" rx="41.5" fill="#00ACC8"/>
<path d="M1192.38 28H1176.88C1175.85 28 1174.86 28.4004 1174.13 29.113C1173.41 29.8256 1173 30.7922 1173 31.8V62.2C1173 63.2078 1173.41 64.1744 1174.13 64.887C1174.86 65.5996 1175.85 66 1176.88 66H1200.12C1201.15 66 1202.14 65.5996 1202.87 64.887C1203.59 64.1744 1204 63.2078 1204 62.2V39.4M1192.38 28L1204 39.4M1192.38 28V39.4H1204M1196.25 48.9H1180.75M1196.25 56.5H1180.75M1184.62 41.3H1180.75" stroke="#E8F5F8" stroke-width="3" stroke-linecap="round" stroke-linejoin="round"/>
</g>
<g filter="url(#filter3_d_817_15253)">
<rect x="1055" y="6" width="83" height="83" rx="41.5" fill="#00ACC8"/>
</g>
<path d="M1095.26 24.304C1099.06 24.304 1102.24 24.6667 1104.8 25.392C1107.4 26.1173 1109.34 27.312 1110.62 28.976C1111.95 30.64 1112.61 32.8587 1112.61 35.632C1112.61 37.424 1112.27 39.024 1111.58 40.432C1110.94 41.7973 1109.96 42.9493 1108.64 43.888C1107.36 44.784 1105.78 45.4027 1103.9 45.744V46.064C1105.82 46.3627 1107.55 46.9173 1109.09 47.728C1110.67 48.5387 1111.9 49.6907 1112.8 51.184C1113.7 52.6773 1114.14 54.6187 1114.14 57.008C1114.14 59.7813 1113.5 62.1493 1112.22 64.112C1110.94 66.032 1109.11 67.504 1106.72 68.528C1104.37 69.5093 1101.56 70 1098.27 70H1082.21V24.304H1095.26ZM1096.42 43.76C1100.34 43.76 1103.03 43.1413 1104.48 41.904C1105.93 40.624 1106.66 38.7467 1106.66 36.272C1106.66 33.7547 1105.76 31.9627 1103.97 30.896C1102.22 29.7867 1099.4 29.232 1095.52 29.232H1087.97V43.76H1096.42ZM1087.97 48.56V65.136H1097.18C1101.24 65.136 1104.05 64.3467 1105.63 62.768C1107.21 61.1893 1108 59.12 1108 56.56C1108 54.9387 1107.64 53.5307 1106.91 52.336C1106.23 51.1413 1105.06 50.224 1103.39 49.584C1101.77 48.9013 1099.55 48.56 1096.74 48.56H1087.97Z" fill="white"/>
<defs>
<filter id="filter0_d_817_15253" x="0" y="0" width="1338" height="163" filterUnits="userSpaceOnUse" color-interpolation-filters="sRGB">
<feFlood flood-opacity="0" result="BackgroundImageFix"/>
<feColorMatrix in="SourceAlpha" type="matrix" values="0 0 0 0 0 0 0 0 0 0 0 0 0 0 0 0 0 0 127 0" result="hardAlpha"/>
<feOffset dy="4"/>
<feGaussianBlur stdDeviation="2"/>
<feComposite in2="hardAlpha" operator="out"/>
<feColorMatrix type="matrix" values="0 0 0 0 0 0 0 0 0 0 0 0 0 0 0 0 0 0 0.05 0"/>
<feBlend mode="normal" in2="BackgroundImageFix" result="effect1_dropShadow_817_15253"/>
<feBlend mode="normal" in="SourceGraphic" in2="effect1_dropShadow_817_15253" result="shape"/>
</filter>
<filter id="filter1_d_817_15253" x="1238" y="6" width="91" height="91" filterUnits="userSpaceOnUse" color-interpolation-filters="sRGB">
<feFlood flood-opacity="0" result="BackgroundImageFix"/>
<feColorMatrix in="SourceAlpha" type="matrix" values="0 0 0 0 0 0 0 0 0 0 0 0 0 0 0 0 0 0 127 0" result="hardAlpha"/>
<feOffset dy="4"/>
<feGaussianBlur stdDeviation="2"/>
<feComposite in2="hardAlpha" operator="out"/>
<feColorMatrix type="matrix" values="0 0 0 0 0 0 0 0 0 0 0 0 0 0 0 0 0 0 0.05 0"/>
<feBlend mode="normal" in2="BackgroundImageFix" result="effect1_dropShadow_817_15253"/>
<feBlend mode="normal" in="SourceGraphic" in2="effect1_dropShadow_817_15253" result="shape"/>
</filter>
<filter id="filter2_d_817_15253" x="1143" y="6" width="91" height="91" filterUnits="userSpaceOnUse" color-interpolation-filters="sRGB">
<feFlood flood-opacity="0" result="BackgroundImageFix"/>
<feColorMatrix in="SourceAlpha" type="matrix" values="0 0 0 0 0 0 0 0 0 0 0 0 0 0 0 0 0 0 127 0" result="hardAlpha"/>
<feOffset dy="4"/>
<feGaussianBlur stdDeviation="2"/>
<feComposite in2="hardAlpha" operator="out"/>
<feColorMatrix type="matrix" values="0 0 0 0 0 0 0 0 0 0 0 0 0 0 0 0 0 0 0.05 0"/>
<feBlend mode="normal" in2="BackgroundImageFix" result="effect1_dropShadow_817_15253"/>
<feBlend mode="normal" in="SourceGraphic" in2="effect1_dropShadow_817_15253" result="shape"/>
</filter>
<filter id="filter3_d_817_15253" x="1051" y="6" width="91" height="91" filterUnits="userSpaceOnUse" color-interpolation-filters="sRGB">
<feFlood flood-opacity="0" result="BackgroundImageFix"/>
<feColorMatrix in="SourceAlpha" type="matrix" values="0 0 0 0 0 0 0 0 0 0 0 0 0 0 0 0 0 0 127 0" result="hardAlpha"/>
<feOffset dy="4"/>
<feGaussianBlur stdDeviation="2"/>
<feComposite in2="hardAlpha" operator="out"/>
<feColorMatrix type="matrix" values="0 0 0 0 0 0 0 0 0 0 0 0 0 0 0 0 0 0 0.05 0"/>
<feBlend mode="normal" in2="BackgroundImageFix" result="effect1_dropShadow_817_15253"/>
<feBlend mode="normal" in="SourceGraphic" in2="effect1_dropShadow_817_15253" result="shape"/>
</filter>
</defs>
</svg>
