<svg width="1330" height="155" viewBox="0 0 1330 155" fill="none" xmlns="http://www.w3.org/2000/svg">
<rect x="8" y="6" width="83" height="83" rx="41.5" fill="#00ACC8"/>
<path d="M54.8357 63.5071L40.0143 47.2036L54.8357 30.9" stroke="#E8F5F8" stroke-width="6" stroke-linecap="round" stroke-linejoin="round"/>
<g filter="url(#filter0_d_202_8140)">
<rect x="1143" y="6" width="83" height="83" rx="41.5" fill="#00ACC8"/>
<path d="M1188.38 28H1172.88C1171.85 28 1170.86 28.4004 1170.13 29.113C1169.41 29.8256 1169 30.7922 1169 31.8V62.2C1169 63.2078 1169.41 64.1744 1170.13 64.887C1170.86 65.5996 1171.85 66 1172.88 66H1196.12C1197.15 66 1198.14 65.5996 1198.87 64.887C1199.59 64.1744 1200 63.2078 1200 62.2V39.4M1188.38 28L1200 39.4M1188.38 28V39.4H1200M1192.25 48.9H1176.75M1192.25 56.5H1176.75M1180.62 41.3H1176.75" stroke="#E8F5F8" stroke-width="3" stroke-linecap="round" stroke-linejoin="round"/>
</g>
<g filter="url(#filter1_d_202_8140)">
<rect x="1238" y="6" width="83" height="83" rx="41.5" fill="#00ACC8"/>
<path d="M1279.5 56.8261V46.2609M1279.5 41.1739C1279.5 40.9022 1279.5 40.4783 1279.5 40.4783M1299 47.5C1299 36.7304 1290.27 28 1279.5 28C1268.73 28 1260 36.7304 1260 47.5C1260 58.2696 1268.73 67 1279.5 67C1290.27 67 1299 58.2696 1299 47.5Z" stroke="#E8F5F8" stroke-width="3" stroke-linecap="round" stroke-linejoin="round"/>
</g>
<defs>
<filter id="filter0_d_202_8140" x="1139" y="6" width="91" height="91" filterUnits="userSpaceOnUse" color-interpolation-filters="sRGB">
<feFlood flood-opacity="0" result="BackgroundImageFix"/>
<feColorMatrix in="SourceAlpha" type="matrix" values="0 0 0 0 0 0 0 0 0 0 0 0 0 0 0 0 0 0 127 0" result="hardAlpha"/>
<feOffset dy="4"/>
<feGaussianBlur stdDeviation="2"/>
<feComposite in2="hardAlpha" operator="out"/>
<feColorMatrix type="matrix" values="0 0 0 0 0 0 0 0 0 0 0 0 0 0 0 0 0 0 0.05 0"/>
<feBlend mode="normal" in2="BackgroundImageFix" result="effect1_dropShadow_202_8140"/>
<feBlend mode="normal" in="SourceGraphic" in2="effect1_dropShadow_202_8140" result="shape"/>
</filter>
<filter id="filter1_d_202_8140" x="1234" y="6" width="91" height="91" filterUnits="userSpaceOnUse" color-interpolation-filters="sRGB">
<feFlood flood-opacity="0" result="BackgroundImageFix"/>
<feColorMatrix in="SourceAlpha" type="matrix" values="0 0 0 0 0 0 0 0 0 0 0 0 0 0 0 0 0 0 127 0" result="hardAlpha"/>
<feOffset dy="4"/>
<feGaussianBlur stdDeviation="2"/>
<feComposite in2="hardAlpha" operator="out"/>
<feColorMatrix type="matrix" values="0 0 0 0 0 0 0 0 0 0 0 0 0 0 0 0 0 0 0.05 0"/>
<feBlend mode="normal" in2="BackgroundImageFix" result="effect1_dropShadow_202_8140"/>
<feBlend mode="normal" in="SourceGraphic" in2="effect1_dropShadow_202_8140" result="shape"/>
</filter>
</defs>
</svg>
